<?xml version="1.0" encoding="utf-8"?>
<!-- Generator: Adobe Illustrator 22.1.0, SVG Export Plug-In . SVG Version: 6.00 Build 0)  -->
<svg version="1.1" id="Layer_1" xmlns="http://www.w3.org/2000/svg" xmlns:xlink="http://www.w3.org/1999/xlink" x="0px" y="0px"
	 width="157px" height="79.4px" viewBox="0 0 157 79.4" style="enable-background:new 0 0 157 79.4;" xml:space="preserve">
<style type="text/css">
	.st0{fill:#E30613;}
	.st1{fill:#231F20;}
</style>
<path class="st0" d="M131.6,12.8c-0.2-0.1-0.3-0.3-0.5-0.4c-0.3-0.2-0.6-0.5-0.9-0.7c-0.5-0.4-0.9-0.8-1.4-1.3
	c-0.1-0.1-0.3-0.3-0.4-0.4c-0.2-0.2-0.4-0.5-0.6-0.7c-0.2-0.3-0.5-0.5-0.8-0.7c-0.2-0.1-0.5-0.2-0.7-0.2c-0.4,0-0.7,0.3-0.7,0.7
	c0,0.2,0,0.4,0.1,0.6c0.1,0.3,0.4,0.5,0.6,0.7c0.3,0.3,0.6,0.5,0.8,0.8c0.2,0.1,0.3,0.3,0.4,0.5c0.1,0.1,0.3,0.3,0.4,0.4
	c0.3,0.3,0.6,0.6,0.9,0.9c0.1,0.1,0.2,0.3,0.3,0.4c0.2,0.2,0.4,0.5,0.6,0.7c0.1,0.1,0.2,0.2,0.3,0.3c0.3,0.3,0.7,0.5,1.2,0.5
	s0.9-0.3,0.9-0.8c0-0.3,0-0.7-0.2-0.9C131.9,13,131.7,12.9,131.6,12.8z"/>
<path class="st0" d="M148.2,2.7c0.2,0.2,1.6,1.3,1.8,1.4c0.3,0.2,0.6,0.4,0.8,0.7c0.2,0.2,0.3,0.4,0.5,0.6c0.2,0.3,0.5,0.5,0.9,0.5
	c0.2,0,0.4,0,0.6,0c0.4-0.1,0.7-0.5,0.6-1c0-0.3-0.2-0.6-0.4-0.9c-0.1-0.1-1.3-1.1-1.5-1.2c-0.5-0.3-0.9-0.7-1.2-1.2
	c-0.2-0.3-0.5-0.5-0.7-0.8c-0.2-0.2-0.5-0.3-0.8-0.4s-0.5,0-0.7,0.1c-0.1,0.1-0.2,0.2-0.3,0.3s-0.1,0.3-0.1,0.4c0,0.4,0.1,0.7,0.3,1
	C148,2.5,148.1,2.6,148.2,2.7z"/>
<path class="st0" d="M125.9,17.7c0.3,0.2,0.6,0.4,0.8,0.7c0.2,0.2,0.3,0.3,0.4,0.5c0.1,0.1,0.2,0.2,0.3,0.4c0.2,0.2,0.5,0.4,0.8,0.6
	c0.2,0.1,0.4,0.1,0.6,0c0.2-0.1,0.4-0.2,0.5-0.4c0.2-0.3,0.3-0.7,0.1-1.1c0-0.1-0.1-0.2-0.2-0.3c-0.1-0.2-0.3-0.3-0.5-0.4
	s-0.3-0.2-0.4-0.3c-0.3-0.2-0.6-0.5-0.8-0.8c-0.1-0.2-0.3-0.3-0.4-0.4s-0.3-0.2-0.4-0.3c-0.2-0.1-0.4-0.2-0.6-0.2s-0.3,0-0.5,0.1
	c-0.3,0.2-0.5,0.4-0.6,0.8c0,0.2,0,0.3,0.1,0.4C125.3,17.1,125.6,17.5,125.9,17.7z"/>
<path class="st0" d="M54.6,18.9c-0.3-0.3-0.6-0.6-0.9-0.8c-0.3-0.2-0.5-0.4-0.7-0.7c0-0.1-0.1-0.1-0.1-0.2c-0.1-0.1-0.2-0.3-0.3-0.4
	c-0.2-0.3-0.5-0.4-0.9-0.5c-0.2,0-0.4,0-0.7,0.1s-0.5,0.4-0.5,0.8c0,0.3,0.1,0.6,0.2,0.8c0.1,0.2,0.2,0.3,0.4,0.4s0.4,0.3,0.6,0.5
	c0.4,0.3,0.8,0.6,1.1,1c0.1,0.2,0.3,0.4,0.5,0.5c0.2,0.2,0.5,0.3,0.8,0.3c0.2,0,0.3,0,0.5-0.1c0.3-0.1,0.5-0.4,0.5-0.7
	c0-0.2,0-0.3-0.1-0.5C54.8,19.2,54.7,19.1,54.6,18.9z"/>
<path class="st0" d="M152,9.6c-0.1,0.2-0.2,0.4-0.1,0.7c0,0.3,0.2,0.5,0.3,0.6c0.3,0.3,0.5,0.5,0.9,0.7c0.3,0.2,0.5,0.4,0.7,0.6
	c0.2,0.2,0.4,0.4,0.5,0.6c0.2,0.3,0.4,0.4,0.8,0.6c0.3,0.1,0.5,0.1,0.8,0c0.2-0.1,0.3-0.1,0.4-0.3c0.1-0.2,0.2-0.4,0.2-0.6
	c0-0.3-0.1-0.6-0.3-0.8c-0.1-0.1-0.2-0.2-0.4-0.3c-0.3-0.2-0.6-0.4-0.8-0.7c-0.2-0.2-0.4-0.4-0.5-0.6c-0.2-0.3-0.4-0.5-0.7-0.7
	c-0.1-0.1-0.2-0.2-0.4-0.3c-0.3-0.2-0.7-0.2-1-0.1C152.3,9.3,152.1,9.4,152,9.6z"/>
<path class="st0" d="M46.5,21.6c-0.2-0.2-0.4-0.3-0.6-0.5c-0.3-0.2-0.5-0.4-0.7-0.7c-0.2-0.2-0.3-0.4-0.5-0.6
	c-0.1-0.2-0.3-0.3-0.5-0.4c-0.4-0.2-0.8-0.1-1.2,0.1c-0.1,0.1-0.2,0.3-0.3,0.4c0,0.3,0,0.6,0.2,0.8c0.1,0.1,0.2,0.3,0.3,0.4
	c0.2,0.2,0.4,0.4,0.6,0.5c0.2,0.2,0.4,0.3,0.5,0.5c0.2,0.3,0.4,0.5,0.6,0.8c0.1,0.1,0.2,0.2,0.3,0.3c0.2,0.2,0.5,0.3,0.8,0.3
	c0,0,0.1,0,0.2,0c0.3,0,0.5-0.1,0.7-0.4c0.2-0.2,0.2-0.4,0.2-0.7c0-0.2-0.1-0.4-0.2-0.6C46.9,21.9,46.7,21.7,46.5,21.6z"/>
<path class="st0" d="M100.3,22.8c-0.1-0.1-0.3-0.2-0.4-0.3c-0.3-0.2-0.6-0.4-0.9-0.7c-0.2-0.2-0.3-0.3-0.5-0.5
	c-0.1-0.1-0.2-0.2-0.3-0.3c-0.2-0.2-0.5-0.3-0.7-0.3c-0.3,0-0.5,0.1-0.7,0.3c-0.2,0.2-0.3,0.4-0.2,0.7c0,0.3,0.2,0.6,0.4,0.8
	c0.1,0.1,0.2,0.2,0.3,0.3c0.3,0.3,0.7,0.7,1,1c0.2,0.3,0.5,0.6,0.7,0.8c0.2,0.2,0.5,0.3,0.7,0.4c0.4,0.1,0.9-0.1,1-0.5
	c0.2-0.4,0.2-0.8,0-1.2C100.6,23.1,100.5,23,100.3,22.8z"/>
<path class="st0" d="M21.4,9.4c-0.2-0.2-0.4-0.3-0.6-0.5c-0.2-0.1-0.4-0.3-0.5-0.4c-0.1-0.1-0.3-0.3-0.4-0.4
	c-0.2-0.2-0.3-0.3-0.5-0.5s-0.5-0.3-0.7-0.3c-0.3,0-0.5,0.1-0.7,0.2c-0.3,0.2-0.5,0.5-0.3,1c0.1,0.2,0.2,0.4,0.4,0.6
	c0.1,0.1,0.3,0.3,0.4,0.4c0.4,0.3,0.7,0.6,1,1c0.1,0.2,0.3,0.3,0.4,0.5c0.2,0.2,0.5,0.4,0.8,0.5c0.4,0.1,0.7,0,0.9-0.2
	c0.3-0.3,0.5-0.8,0.3-1.3C21.7,9.8,21.6,9.6,21.4,9.4z"/>
<path class="st0" d="M138.9,5.2c-0.2-0.2-0.4-0.3-0.6-0.5c-0.2-0.1-0.4-0.3-0.5-0.5c-0.1-0.1-0.2-0.3-0.3-0.4
	c-0.1-0.2-0.3-0.3-0.5-0.5c-0.3-0.2-0.6-0.3-1-0.3c-0.1,0-0.3,0-0.4,0.1c-0.2,0.1-0.4,0.2-0.5,0.4c-0.1,0.1-0.1,0.3,0,0.5
	c0.1,0.3,0.2,0.6,0.4,0.8c0.1,0.1,0.2,0.1,0.2,0.2c0.1,0.1,0.3,0.2,0.4,0.3c0.4,0.3,0.7,0.7,1,1.1c0.1,0.2,0.2,0.3,0.4,0.5
	s0.5,0.4,0.8,0.5s0.5,0,0.8-0.1c0.2-0.1,0.4-0.3,0.4-0.5c0.1-0.3,0-0.6-0.1-0.9C139.2,5.6,139,5.4,138.9,5.2z"/>
<path class="st0" d="M72.9,2.2c0.2,0.1,0.3,0.3,0.5,0.4c0.5,0.3,1.4,1.1,1.8,1.5c0.1,0.1,0.2,0.2,0.3,0.3c0.2,0.2,0.5,0.4,0.8,0.3
	c0.3,0,0.4,0,0.7-0.2c0.1-0.1,0.2-0.2,0.2-0.4c0-0.1,0-0.3,0-0.4c0-0.1-0.1-0.3-0.2-0.4c-0.2-0.2-0.3-0.4-0.5-0.5
	c-0.4-0.3-1.2-1.2-1.5-1.6c-0.1-0.1-0.2-0.2-0.2-0.3c-0.1-0.1-0.2-0.3-0.3-0.4c-0.3-0.2-0.6-0.4-1-0.4c-0.3,0-0.5,0.1-0.7,0.2
	s-0.3,0.3-0.3,0.5s0,0.4,0,0.7C72.4,1.8,72.6,2,72.9,2.2z"/>
<path class="st0" d="M99.9,2.5c0.2,0.1,0.3,0.3,0.5,0.4c0.5,0.3,1.4,1.1,1.8,1.5c0.1,0.1,0.2,0.2,0.3,0.3c0.2,0.2,0.5,0.4,0.8,0.3
	c0.3,0,0.4,0,0.7-0.2c0.1-0.1,0.2-0.2,0.2-0.4c0-0.1,0-0.3,0-0.4s-0.1-0.3-0.2-0.4c-0.2-0.2-0.3-0.4-0.5-0.5
	c-0.4-0.3-1.2-1.2-1.5-1.6c-0.1-0.1-0.2-0.2-0.2-0.3c-0.1-0.1-0.2-0.3-0.3-0.4c-0.3-0.2-0.6-0.4-1-0.4c-0.3,0-0.5,0.1-0.7,0.2
	s-0.3,0.3-0.3,0.5s0,0.4,0,0.7C99.5,2.1,99.6,2.3,99.9,2.5z"/>
<path class="st0" d="M90,8.1c-0.1-0.2-0.2-0.4-0.3-0.6c-0.2-0.2-0.4-0.4-0.7-0.6c-0.3-0.2-0.6-0.5-0.8-0.8c-0.2-0.2-0.3-0.4-0.5-0.6
	c-0.2-0.3-0.5-0.4-0.9-0.4c-0.3,0-0.5,0-0.8,0.2c-0.2,0.1-0.3,0.2-0.3,0.4c0,0.1-0.1,0.3-0.1,0.4c0,0.3,0.1,0.5,0.2,0.8
	C86,7,86.2,7.1,86.4,7.2c0.2,0.1,0.3,0.2,0.5,0.3c0.3,0.2,0.6,0.4,0.8,0.7c0.1,0.1,0.2,0.2,0.3,0.3c0.1,0.2,0.3,0.3,0.5,0.4
	c0.2,0.1,0.4,0.2,0.7,0.2c0.2,0,0.5-0.1,0.7-0.2C90,8.8,90.1,8.4,90,8.1z"/>
<path class="st0" d="M88.5,12.5c-0.1-0.1-0.2-0.1-0.3-0.2c-0.3,0-0.5,0-0.7,0.1c-0.3,0.1-0.5,0.3-0.7,0.6c-0.1,0.1-0.1,0.2-0.2,0.2
	c-0.3,0.4-0.6,0.8-1,1.1c-0.2,0.2-0.4,0.4-0.5,0.6c-0.1,0.2-0.2,0.3-0.2,0.5c-0.1,0.2,0,0.4,0,0.6c0.1,0.4,0.4,0.6,0.7,0.6
	c0.3,0.1,0.6,0,0.8-0.2c0.1-0.1,0.2-0.2,0.2-0.3c0.1-0.2,0.3-0.4,0.4-0.6c0.2-0.3,0.4-0.6,0.8-0.8c0.1-0.1,0.3-0.2,0.4-0.2
	c0.1-0.1,0.2-0.1,0.4-0.2c0.2-0.1,0.4-0.3,0.4-0.5c0-0.1,0-0.2,0.1-0.3C89,13,88.8,12.7,88.5,12.5z"/>
<path class="st0" d="M78.4,10.1c-0.1-0.2-0.3-0.4-0.5-0.6c-0.3-0.2-0.5-0.5-0.8-0.8c-0.1-0.1-0.2-0.2-0.3-0.4
	c-0.3-0.3-0.6-0.5-0.9-0.6c-0.1,0-0.2-0.1-0.4-0.1h-0.2c-0.2,0.1-0.4,0.2-0.5,0.4s-0.1,0.3-0.1,0.5s0.1,0.3,0.2,0.5s0.2,0.3,0.4,0.4
	c0.2,0.2,0.5,0.4,0.7,0.6c0.2,0.2,0.5,0.4,0.6,0.7c0.1,0.1,0.1,0.2,0.2,0.2c0.2,0.2,0.3,0.4,0.6,0.5c0.1,0.1,0.3,0.1,0.4,0.2
	c0.2,0,0.4,0,0.6-0.1c0.4-0.3,0.5-0.7,0.4-1.2C78.5,10.3,78.5,10.2,78.4,10.1z"/>
<path class="st0" d="M116.4,20.9c-0.1-0.1-0.2-0.2-0.3-0.3c-0.4-0.3-0.8-0.7-1.1-1.1c-0.1-0.1-0.1-0.2-0.2-0.3
	c-0.1-0.2-0.3-0.3-0.5-0.4s-0.4-0.2-0.6-0.3c-0.4-0.1-0.8,0.2-0.9,0.7c0,0.3,0,0.6,0.2,0.8c0.2,0.3,0.4,0.5,0.6,0.7s0.4,0.4,0.6,0.6
	c0.2,0.3,0.4,0.5,0.7,0.8c0.3,0.3,0.6,0.5,1.1,0.5c0.1,0,0.1,0,0.2,0c0.3,0,0.7-0.2,0.7-0.7c0-0.1,0-0.2,0-0.2
	C116.8,21.4,116.6,21.1,116.4,20.9z"/>
<path class="st0" d="M88.9,68c-0.1-0.1-0.6-0.6-0.7-0.6c-0.4-0.3-1.1-1-1.4-1.4c-0.1-0.1-0.1-0.2-0.2-0.3c-0.1-0.2-0.3-0.3-0.5-0.4
	s-0.4-0.2-0.6-0.3c-0.4-0.1-0.8,0.2-0.9,0.7c0,0.3,0,0.6,0.2,0.8c0.2,0.3,0.7,0.8,0.9,1c0.2,0.2,0.8,0.8,1,1
	c0.2,0.3,0.4,0.5,0.7,0.8c0.3,0.3,0.6,0.5,1.1,0.5c0.1,0,0.1,0,0.2,0c0.3,0,0.7-0.2,0.7-0.7c0-0.1,0-0.2,0-0.2
	C89.3,68.5,89.1,68.2,88.9,68z"/>
<path class="st0" d="M111.1,16.1c0.2,0.1,0.3,0.2,0.5,0.1c0.2,0,0.3-0.1,0.4-0.2c0.2-0.1,0.3-0.3,0.5-0.5s0.3-0.4,0.5-0.6
	c0.2-0.2,0.4-0.4,0.6-0.5c0.1-0.1,0.3-0.2,0.4-0.2c0.1-0.1,0.2-0.1,0.3-0.2c0.3-0.2,0.4-0.5,0.4-0.9c0-0.2-0.1-0.4-0.2-0.5
	c-0.3-0.3-0.6-0.4-1-0.4c-0.2,0-0.3,0.1-0.5,0.2c-0.3,0.1-0.5,0.3-0.7,0.5c-0.4,0.4-0.8,0.9-1.2,1.2c-0.1,0.1-0.2,0.2-0.2,0.2
	c-0.1,0.2-0.2,0.3-0.3,0.5c0,0.1,0,0.1,0,0.2c0,0.1,0,0.2,0,0.3C110.8,15.7,110.9,15.9,111.1,16.1z"/>
<path class="st0" d="M93.6,9.7c-0.2-0.1-0.4-0.1-0.7-0.1C92.6,9.7,92.3,9.8,92,10s-0.4,0.5-0.5,0.9c0,0.4,0,0.7,0.1,1.1
	c0.1,0.3,0.3,0.6,0.5,0.9c0.2,0.2,0.5,0.3,0.8,0.3s0.6-0.1,0.8-0.3c0.2-0.2,0.3-0.4,0.4-0.6c0.1-0.3,0.2-0.7,0.2-1s0-0.6-0.2-0.9
	C94.2,10,94,9.8,93.6,9.7z"/>
<path class="st0" d="M123.6,22.2c0.2,0.2,0.5,0.3,0.8,0.3c0.2,0,0.4,0,0.5-0.1c0.2-0.1,0.2-0.2,0.3-0.4c0-0.1,0-0.1,0-0.2
	c0-0.3-0.1-0.6-0.3-0.8c-0.1-0.1-0.2-0.2-0.3-0.3c-0.1-0.1-0.3-0.3-0.4-0.4c-0.4-0.4-0.7-0.7-1.1-1.1c-0.2-0.2-0.4-0.3-0.6-0.5
	c-0.1-0.1-0.3-0.1-0.5-0.1c-0.3,0-0.6,0.1-0.8,0.3c-0.2,0.2-0.3,0.4-0.2,0.7c0,0.2,0.1,0.3,0.2,0.4c0.2,0.3,0.5,0.5,0.8,0.7
	c0.1,0.1,0.3,0.2,0.4,0.3c0.3,0.2,0.6,0.5,0.9,0.7C123.4,22,123.5,22.1,123.6,22.2z"/>
<path class="st0" d="M75.1,15.6c-0.1,0-0.1-0.1-0.2-0.1c-0.4-0.1-0.7-0.1-1.1,0.1c-0.2,0.1-0.4,0.3-0.5,0.6c-0.2,0.5-0.1,1,0.2,1.4
	c0.1,0.1,0.2,0.2,0.3,0.3c0.3,0.2,0.5,0.3,0.9,0.3c0.1,0,0.2,0,0.3,0c0.3-0.1,0.5-0.2,0.7-0.5c0.2-0.4,0.3-0.7,0.2-1.2
	C75.8,16.2,75.6,15.8,75.1,15.6z"/>
<path class="st0" d="M9,37.2c-0.1-0.3-0.3-0.5-0.7-0.7c-0.2-0.1-0.4-0.1-0.6-0.1s-0.4,0-0.6,0.1S6.8,36.8,6.7,37
	c-0.1,0.3-0.2,0.6-0.1,0.9c0.1,0.5,0.3,0.9,0.8,1c0.4,0.1,0.8,0.1,1.2,0c0.1,0,0.2-0.1,0.3-0.2c0.3-0.3,0.4-0.6,0.3-1
	C9.1,37.6,9.1,37.4,9,37.2z"/>
<path class="st0" d="M2.1,44.1C1.9,44,1.8,44,1.6,44c-0.1,0-0.1,0-0.2,0c-0.5,0-0.9,0.4-1,0.9c-0.1,0.2-0.1,0.5,0,0.7
	c0,0.2,0.1,0.4,0.3,0.6c0.2,0.3,0.6,0.4,0.9,0.5c0.5,0,0.8-0.2,1.1-0.6c0.2-0.3,0.2-0.7,0.2-1C2.8,44.7,2.5,44.3,2.1,44.1z"/>
<path class="st0" d="M0.9,38.1c-0.3,0.1-0.5,0.3-0.6,0.6s-0.1,0.6-0.1,0.9c0.1,0.4,0.3,0.7,0.7,0.9c0.1,0,0.2,0.1,0.3,0.1
	c0.3,0.1,0.6,0,0.9-0.1c0.2-0.1,0.3-0.2,0.4-0.4c0.1-0.2,0.2-0.4,0.2-0.6c0-0.3,0-0.5-0.2-0.8c-0.1-0.2-0.3-0.4-0.5-0.5
	C1.6,38,1.2,38,0.9,38.1z"/>
<path class="st0" d="M52.5,22.9c-0.1-0.1-0.2-0.2-0.4-0.3c-0.2-0.1-0.4-0.1-0.6-0.1c-0.1,0-0.2,0-0.3,0.1c-0.2,0.1-0.4,0.1-0.6,0.3
	c-0.2,0.2-0.3,0.5-0.3,0.8c0,0.2,0.1,0.5,0.2,0.7c0.1,0.3,0.4,0.5,0.7,0.6c0.2,0.1,0.4,0.1,0.6,0.1c0,0,0.1,0,0.2,0
	c0.3,0,0.6-0.2,0.7-0.4c0.2-0.3,0.2-0.5,0.2-0.8C52.8,23.5,52.7,23.2,52.5,22.9z"/>
<path class="st0" d="M92.1,17.4c-0.2-0.1-0.5-0.3-0.8-0.2c-0.5,0-0.9,0.3-1,0.8c-0.1,0.3-0.1,0.6,0,0.8c0.1,0.4,0.4,0.6,0.7,0.8
	c0.2,0.1,0.4,0.2,0.6,0.2c0.3,0,0.6-0.1,0.9-0.3c0.2-0.2,0.3-0.4,0.4-0.6c0.1-0.3,0-0.5-0.1-0.8C92.6,17.8,92.4,17.6,92.1,17.4z"/>
<path class="st0" d="M47.1,27.4c-0.3-0.2-0.7-0.2-1.1-0.2c-0.1,0-0.3,0.1-0.4,0.2c-0.2,0.1-0.3,0.3-0.4,0.6
	c-0.1,0.2-0.1,0.4-0.1,0.6c0,0.4,0.2,0.7,0.6,0.9c0.2,0.1,0.4,0.2,0.7,0.2c0.2,0,0.5-0.1,0.7-0.2s0.3-0.2,0.4-0.4
	c0.1-0.2,0.2-0.4,0.2-0.7c0-0.1,0-0.2,0-0.3C47.5,27.8,47.4,27.5,47.1,27.4z"/>
<path class="st0" d="M119.6,12.2c0.2,0.1,0.5,0.1,0.7,0c0,0,0.1,0,0.1-0.1c0.4-0.2,0.7-0.6,0.8-1.1c0.1-0.5-0.1-0.8-0.4-1.1
	c-0.2-0.2-0.5-0.3-0.8-0.2c-0.1,0-0.2,0-0.2,0c-0.4,0.1-0.8,0.3-0.9,0.7s-0.1,0.7,0,1.1C118.9,11.9,119.2,12.1,119.6,12.2z"/>
<path class="st0" d="M155.7,24c-0.6-0.2-1,0-1.3,0.3c-0.2,0.3-0.4,0.6-0.4,0.9s0.1,0.5,0.3,0.7l0.1,0.1c0.3,0.2,0.6,0.4,0.9,0.3
	c0.4,0,0.7-0.2,0.9-0.4c0.2-0.2,0.3-0.4,0.3-0.7C156.5,24.6,156.2,24.2,155.7,24z"/>
<path class="st0" d="M150.4,29.7c-0.1-0.1-0.2-0.3-0.4-0.3c-0.3-0.2-0.7-0.2-1.1-0.1c-0.3,0.1-0.4,0.3-0.5,0.5
	c-0.2,0.4-0.2,0.8,0,1.3c0.1,0.3,0.3,0.5,0.6,0.6c0.1,0,0.2,0,0.3,0c0.2,0,0.4,0,0.6-0.1c0.2-0.1,0.4-0.2,0.5-0.3
	c0.2-0.3,0.3-0.6,0.2-0.9C150.7,30.1,150.6,29.9,150.4,29.7z"/>
<path class="st0" d="M92.1,2.5c0.2,0.1,0.5,0.1,0.7,0c0.5-0.2,0.9-0.8,0.9-1.3c0-0.2-0.1-0.4-0.2-0.6c-0.2-0.4-0.9-0.7-1.5-0.5
	c-0.4,0.1-0.6,0.4-0.7,0.8c0,0.2-0.1,0.3,0,0.5C91.4,1.9,91.7,2.2,92.1,2.5z"/>
<path class="st0" d="M132.3,8.1c0,0.1,0.1,0.3,0.1,0.4c0.2,0.4,0.6,0.7,1,0.8c0.2,0,0.4,0.1,0.6,0c0.2-0.1,0.4-0.2,0.5-0.4
	c0.1-0.1,0.1-0.3,0.1-0.4c0-0.3-0.1-0.6-0.2-0.8c-0.1-0.2-0.3-0.4-0.5-0.5C133.6,7.1,133.3,7,133,7c-0.2,0-0.4,0.1-0.5,0.2
	c-0.2,0.2-0.3,0.4-0.3,0.6C132.3,7.9,132.3,8,132.3,8.1z"/>
<path class="st0" d="M39,21.5c-0.1-0.1-0.3-0.2-0.5-0.3c-0.1-0.1-0.2-0.1-0.4-0.1c-0.3,0-0.5,0.1-0.8,0.3c-0.1,0.1-0.2,0.2-0.2,0.4
	c-0.1,0.3-0.1,0.6,0,1c0.1,0.2,0.2,0.4,0.4,0.5c0.5,0.3,1,0.3,1.5,0c0.2-0.1,0.3-0.3,0.4-0.5c0-0.2,0-0.4,0-0.6
	C39.4,21.9,39.2,21.7,39,21.5z"/>
<path class="st0" d="M81,2.3c0.3-0.1,0.4-0.2,0.6-0.4c0.2-0.3,0.2-0.6,0.1-1s-0.4-0.7-0.8-0.8c-0.1,0-0.1,0-0.2,0s-0.2,0-0.3,0l0,0
	c-0.1,0-0.2,0-0.3,0c-0.2,0-0.4,0.1-0.6,0.3c-0.1,0.1-0.2,0.2-0.2,0.3c-0.1,0.4-0.1,0.7,0.1,1C79.7,2.2,80.5,2.4,81,2.3z"/>
<path class="st0" d="M18.1,12.5H18c-0.5,0-0.8,0.3-0.9,0.8c0,0.1,0,0.1,0,0.2c0,0.2,0.1,0.4,0.1,0.5c0.1,0.2,0.3,0.4,0.5,0.6
	c0.2,0.1,0.3,0.1,0.5,0.2c0.2,0.1,0.5,0,0.7-0.1c0.3-0.1,0.5-0.3,0.5-0.6c0.1-0.3,0-0.6-0.2-0.9C19.1,12.7,18.7,12.5,18.1,12.5z"/>
<path class="st0" d="M12.4,2.7c0.4,0,0.7-0.1,1-0.3c0.1-0.1,0.3-0.2,0.3-0.4c0.1-0.3,0.1-0.7,0-1c-0.1-0.2-0.3-0.4-0.6-0.5
	c-0.1,0-0.3,0-0.4,0c-0.1,0-0.1,0-0.2,0c-0.3,0-0.5,0.1-0.8,0.2c-0.2,0.1-0.3,0.3-0.4,0.5c-0.1,0.3,0,0.5,0.1,0.8
	C11.7,2.5,12,2.7,12.4,2.7z"/>
<path class="st0" d="M42,25.8c-0.1-0.4-0.3-0.7-0.6-0.9c-0.2-0.1-0.4-0.2-0.7-0.2c-0.1,0-0.1,0-0.1,0c-0.5,0-0.9,0.4-0.9,0.8
	c-0.1,0.6,0.3,1.2,0.8,1.4C40.8,27,41,27,41.3,27c0.2,0,0.3-0.1,0.5-0.2C42,26.5,42,26.2,42,25.8z"/>
<path class="st0" d="M31,7.7c0-0.3,0-0.5-0.1-0.8c-0.2-0.4-0.4-0.6-0.8-0.7c-0.2,0-0.4,0-0.6,0c-0.4,0.1-0.7,0.3-0.8,0.7
	c-0.1,0.2-0.1,0.5,0,0.7C28.8,8,29,8.2,29.3,8.4c0.1,0.1,0.3,0,0.4,0.1c0.1,0,0.1,0,0.2,0c0.3,0,0.5-0.1,0.7-0.3
	C30.8,8.1,31,7.9,31,7.7z"/>
<path class="st0" d="M155.4,3.1L155.4,3.1c0.5,0,0.8-0.2,1-0.6c0-0.1,0-0.1,0.1-0.2c0.1-0.2,0.1-0.5,0-0.7c-0.2-0.4-0.4-0.7-0.9-0.7
	c-0.3,0-0.5,0-0.8,0.1c-0.2,0-0.4,0.2-0.5,0.3c-0.2,0.3-0.3,0.6-0.2,0.9C154.3,2.7,154.7,3.2,155.4,3.1z"/>
<path class="st0" d="M112.7,9.5c0.4,0.4,0.8,0.6,1.3,0.5c0.2,0,0.3-0.1,0.5-0.2c0.3-0.3,0.5-0.8,0.3-1.3c-0.1-0.3-0.3-0.5-0.6-0.6
	c-0.2-0.1-0.4-0.1-0.6-0.1s-0.4,0-0.6,0.1c-0.4,0.1-0.6,0.4-0.7,0.8v0.1C112.4,9,112.5,9.3,112.7,9.5z"/>
<path class="st0" d="M30.2,0.3C29.9,0,29.5,0,29.1,0c-0.3,0-0.5,0.2-0.6,0.4s-0.1,0.3-0.1,0.5s0,0.3,0.1,0.5C28.6,1.7,28.7,2,29,2.1
	c0.2,0.2,0.5,0.2,0.7,0.2s0.4-0.1,0.6-0.2c0.1-0.1,0.2-0.2,0.3-0.4c0.2-0.4,0.2-0.8,0-1.2C30.5,0.5,30.4,0.4,30.2,0.3z"/>
<path class="st0" d="M119,17.8c0.1-0.4,0-0.7-0.2-1c-0.3-0.4-0.8-0.6-1.3-0.6c-0.1,0-0.1,0-0.2,0s-0.2,0-0.3,0.1
	c-0.2,0.1-0.3,0.3-0.3,0.5c0,0.1,0,0.2,0,0.4c0,0.2,0,0.3,0.1,0.5c0.2,0.4,0.4,0.7,0.8,0.8c0.3,0.1,0.6,0.2,0.9,0
	C118.7,18.3,118.9,18.1,119,17.8z"/>
<path class="st0" d="M131.5,4.3c0.1-0.4,0-0.7-0.2-1c-0.3-0.4-0.8-0.6-1.3-0.6c-0.1,0-0.1,0-0.2,0c-0.1,0-0.2,0-0.3,0.1
	c-0.2,0.1-0.3,0.3-0.3,0.5c0,0.1,0,0.2,0,0.4s0,0.3,0.1,0.5c0.2,0.4,0.4,0.7,0.8,0.8c0.3,0.1,0.6,0.2,0.9,0
	C131.2,4.8,131.4,4.6,131.5,4.3z"/>
<path class="st0" d="M60.8,12.5c-0.3-0.2-0.6-0.3-0.9-0.3c-0.2,0-0.4,0-0.5,0.1c-0.3,0.2-0.5,0.5-0.5,0.8c0,0,0,0,0,0.1
	c0,0.3,0.2,0.6,0.4,0.8s0.5,0.3,0.8,0.3c0.3,0.1,0.5,0,0.8-0.1c0.2-0.1,0.3-0.3,0.4-0.5c0-0.2,0-0.4,0-0.6
	C61.1,12.9,61,12.7,60.8,12.5z"/>
<path class="st0" d="M61,9.9c0.1,0,0.1,0,0.2,0c0.3,0,0.6-0.2,0.8-0.4c0.1-0.1,0.2-0.2,0.2-0.4c0-0.1,0-0.2,0-0.3
	C62.1,8.4,62,8.2,61.6,8c-0.2-0.1-0.4-0.1-0.6-0.1c-0.2,0-0.5,0.1-0.7,0.2c-0.3,0.2-0.6,0.6-0.5,1.1c0,0.2,0.1,0.3,0.2,0.4
	C60.4,9.9,60.6,10,61,9.9z"/>
<path class="st0" d="M124.8,25.1c-0.2-0.1-0.3-0.1-0.5-0.1c-0.3,0-0.6,0.1-0.8,0.2c-0.4,0.2-0.5,0.6-0.4,1c0.1,0.2,0.1,0.3,0.3,0.5
	c0.3,0.3,0.6,0.5,1.1,0.4c0.2,0,0.3-0.1,0.4-0.1c0.3-0.1,0.4-0.3,0.5-0.6c0.1-0.2,0.1-0.5,0-0.7C125.3,25.4,125.1,25.2,124.8,25.1z"
	/>
<path class="st0" d="M120.4,22.9c-0.2-0.2-0.5-0.3-0.8-0.2c-0.1,0-0.3,0-0.4,0.1c-0.3,0.1-0.5,0.4-0.6,0.7c-0.1,0.5,0.1,0.9,0.4,1.2
	c0.2,0.2,0.5,0.3,0.8,0.3s0.6-0.1,0.9-0.4c0.2-0.3,0.3-0.5,0.2-0.9C120.9,23.4,120.7,23.1,120.4,22.9z"/>
<path class="st0" d="M142.9,2.2c0.7-0.1,1-1,0.7-1.5c-0.1-0.2-0.3-0.3-0.4-0.4c-0.2-0.1-0.5-0.2-0.8-0.2c-0.1,0-0.3,0-0.5,0.1
	s-0.3,0.2-0.4,0.4c-0.1,0.2-0.1,0.3-0.1,0.5s0.1,0.4,0.2,0.5C141.8,2.1,142.4,2.3,142.9,2.2z"/>
<path class="st0" d="M149.8,12.1c-0.3-0.4-0.7-0.6-1.1-0.6c-0.2,0-0.5,0.1-0.6,0.2c-0.2,0.1-0.3,0.3-0.4,0.6c0,0.1,0,0.3,0,0.4
	c0,0.3,0.2,0.6,0.4,0.7c0.4,0.3,0.8,0.4,1.2,0.3c0.3-0.1,0.5-0.2,0.6-0.5C150.1,12.8,150,12.4,149.8,12.1z"/>
<path class="st0" d="M144.2,5.4c-0.3-0.2-0.6-0.3-0.9-0.4c-0.3,0-0.5,0.1-0.7,0.2c-0.1,0.1-0.3,0.2-0.3,0.4c-0.1,0.4,0,0.8,0.3,1.1
	c0.3,0.3,0.7,0.4,1.1,0.4c0.2,0,0.4,0,0.6-0.2c0.2-0.1,0.3-0.3,0.3-0.5c0.1-0.3,0-0.7-0.2-0.9C144.3,5.5,144.3,5.4,144.2,5.4z"/>
<path class="st0" d="M152.7,15.4c-0.1,0-0.3,0-0.4,0.1c-0.2,0.1-0.4,0.3-0.4,0.5c0,0.2,0,0.4,0.1,0.6c0.1,0.4,0.4,0.7,0.8,0.9
	c0.3,0.1,0.5,0.1,0.8,0.1c0.4-0.1,0.7-0.4,0.7-0.9c0-0.3-0.1-0.6-0.3-0.8C153.6,15.5,153.2,15.4,152.7,15.4z"/>
<path class="st0" d="M81.2,14c-0.1-0.2-0.3-0.4-0.6-0.5c-0.2-0.1-0.4-0.1-0.6-0.1s-0.4,0.1-0.5,0.3c-0.4,0.4-0.4,0.9-0.2,1.5
	c0.1,0.3,0.4,0.5,0.7,0.5c0.1,0,0.2,0,0.3,0c0.1,0,0.2,0,0.3,0c0.2,0,0.3-0.1,0.5-0.2c0.3-0.2,0.4-0.7,0.4-1
	C81.4,14.4,81.3,14.2,81.2,14z"/>
<path class="st0" d="M86.7,3.2c0.1,0,0.2,0,0.3,0c0.7-0.2,0.9-0.9,0.8-1.3c-0.1-0.3-0.2-0.5-0.5-0.6C87,1.1,86.7,1,86.4,1.1
	c-0.2,0-0.4,0.1-0.6,0.2s-0.3,0.3-0.3,0.5c-0.1,0.4,0,0.7,0.2,1C85.9,3,86.3,3.2,86.7,3.2z"/>
<path class="st0" d="M37.5,2.2c0.2,0.1,0.4,0.2,0.7,0.1c0.3-0.1,0.5-0.3,0.7-0.6C39,1.5,39,1.4,39,1.2s0-0.4-0.1-0.6
	C38.7,0.3,38.4,0,38,0c-0.1,0-0.2,0-0.2,0c-0.2,0-0.4,0.1-0.6,0.2c-0.2,0.1-0.3,0.3-0.3,0.4C36.7,1.3,37,1.9,37.5,2.2z"/>
<path class="st0" d="M111.8,24.5c-0.2-0.1-0.3-0.1-0.5-0.1s-0.3,0.1-0.4,0.2s-0.2,0.2-0.2,0.3c-0.2,0.4-0.2,0.7,0,1.1
	c0.1,0.3,0.4,0.5,0.7,0.6c0.1,0,0.3,0,0.4,0c0.3,0,0.5-0.1,0.7-0.2c0.1,0,0.1-0.1,0.1-0.2c0.2-0.3,0.2-0.7,0.1-1
	C112.5,24.9,112.2,24.7,111.8,24.5z"/>
<path class="st0" d="M149.4,42.8c-0.3-0.2-0.5-0.2-0.8-0.2c-0.2,0-0.4,0.1-0.5,0.3c-0.2,0.3-0.2,0.6-0.2,0.9c0,0.2,0.1,0.4,0.2,0.6
	c0.1,0.2,0.3,0.4,0.5,0.4c0.1,0,0.3,0.1,0.4,0.1c0.1,0,0.1,0,0.2,0c0.2,0,0.4-0.1,0.5-0.2C150.1,44.1,150,43.2,149.4,42.8z"/>
<path class="st0" d="M121,15.3c0,0.2,0.1,0.4,0.3,0.5c0.2,0.2,0.5,0.3,0.8,0.3c0.2,0,0.5-0.1,0.7-0.2c0.2-0.1,0.3-0.3,0.3-0.5
	c0.1-0.4-0.1-1.1-0.6-1.3c-0.3-0.1-0.6-0.2-0.9-0.1c-0.4,0.1-0.7,0.4-0.7,0.8C121,15,121,15.2,121,15.3z"/>
<path class="st0" d="M129.2,24.1c0,0.2,0.1,0.4,0.3,0.5c0.2,0.2,0.5,0.3,0.8,0.3c0.2,0,0.5-0.1,0.7-0.2s0.3-0.3,0.3-0.5
	c0.1-0.4-0.1-1.1-0.6-1.3c-0.3-0.1-0.6-0.2-0.9-0.1c-0.4,0.1-0.7,0.4-0.7,0.8C129.2,23.8,129.2,23.9,129.2,24.1z"/>
<path class="st0" d="M153.4,20.5c0-0.1-0.1-0.3-0.2-0.4c-0.2-0.2-0.3-0.3-0.6-0.4s-0.6,0-0.9,0.1c-0.2,0.1-0.4,0.2-0.5,0.4
	c-0.1,0.2-0.1,0.5-0.1,0.8c0,0.2,0.1,0.3,0.2,0.5c0.3,0.3,0.7,0.4,1.1,0.4c0.2,0,0.4-0.1,0.5-0.3c0.2-0.2,0.3-0.5,0.3-0.9
	C153.4,20.7,153.4,20.6,153.4,20.5z"/>
<path class="st0" d="M83.4,9.1c-0.3-0.1-0.7-0.2-1-0.1c-0.2,0-0.3,0.1-0.5,0.3c-0.2,0.3-0.3,0.6-0.3,0.9c0,0.5,0.4,1,1,1
	c0.3,0,0.6-0.1,0.8-0.3c0.4-0.4,0.5-0.8,0.3-1.4C83.6,9.4,83.5,9.2,83.4,9.1z"/>
<path class="st0" d="M106.6,24c-0.2-0.1-0.4-0.2-0.6-0.2c-0.3,0-0.6,0.2-0.8,0.5c-0.1,0.2-0.1,0.3-0.2,0.5c0,0.1,0,0.1,0,0.2
	c0,0.2,0.1,0.3,0.2,0.5s0.2,0.3,0.4,0.4c0.3,0.2,0.6,0.2,0.8,0.1c0.1,0,0.3-0.1,0.4-0.2c0.2-0.2,0.4-0.5,0.4-0.9c0,0,0-0.1,0-0.2
	C107.1,24.4,106.9,24.2,106.6,24z"/>
<path class="st0" d="M35.1,5.1c0.3-0.1,0.5-0.3,0.6-0.6c0-0.1,0.1-0.3,0.1-0.4s0-0.1,0-0.2c0-0.3-0.2-0.5-0.4-0.7
	C35.2,3.1,35,3,34.8,2.9c-0.3-0.1-0.5,0-0.8,0.1c-0.2,0.1-0.4,0.3-0.4,0.5s0,0.4,0,0.6C33.7,4.8,34.3,5.3,35.1,5.1z"/>
<path class="st0" d="M39.7,18.4c0.3,0,0.6-0.1,0.9-0.4c0.1-0.1,0.2-0.3,0.3-0.5c0.1-0.5-0.1-1-0.6-1.3c-0.3-0.2-0.7-0.2-1,0.1
	c-0.3,0.3-0.4,0.6-0.4,1c0,0.3,0.1,0.5,0.2,0.7C39.2,18.3,39.5,18.4,39.7,18.4z"/>
<path class="st0" d="M15.3,6.3c0-0.4-0.1-0.7-0.3-0.9c0-0.1-0.1-0.1-0.2-0.1C14.6,5.1,14.3,5,14,5c-0.1,0-0.2,0-0.3,0.1
	c-0.3,0.1-0.5,0.4-0.5,0.7c0,0.2,0,0.3,0.1,0.5c0.1,0.3,0.3,0.6,0.5,0.7c0.4,0.3,0.8,0.3,1.2,0c0.1,0,0.1-0.1,0.2-0.2
	C15.3,6.7,15.3,6.5,15.3,6.3z"/>
<path class="st0" d="M148.8,9c0.1,0,0.2,0,0.3,0c0.2-0.1,0.5-0.2,0.6-0.4s0.2-0.4,0.1-0.6c-0.1-0.3-0.2-0.5-0.4-0.7
	c0-0.2-0.2-0.3-0.4-0.3c-0.2-0.1-0.5-0.1-0.7,0s-0.5,0.2-0.6,0.4c-0.1,0.3-0.1,0.6,0,0.9C148,8.7,148.3,9,148.8,9z"/>
<path class="st0" d="M81,5.1c-0.1,0-0.3-0.1-0.5-0.1s-0.4,0-0.6,0.2c-0.1,0.1-0.3,0.2-0.3,0.4c-0.1,0.2-0.1,0.5-0.1,0.7
	c0.1,0.4,0.3,0.7,0.7,0.8c0.2,0.1,0.4,0.1,0.7,0.1c0.4-0.1,0.6-0.3,0.7-0.7c0-0.2,0-0.4,0-0.6C81.5,5.5,81.3,5.3,81,5.1z"/>
<path class="st0" d="M34.3,7.2c-0.1,0-0.2,0-0.3,0c-0.4,0-0.8,0.3-0.9,0.8c0,0.2,0,0.3,0,0.5c0.1,0.4,0.3,0.7,0.7,0.8
	c0.1,0,0.2,0,0.3,0.1c0.4,0,0.7-0.2,0.9-0.5c0.1-0.2,0.2-0.4,0.2-0.6c0-0.3-0.1-0.6-0.4-0.9C34.5,7.2,34.4,7.2,34.3,7.2z"/>
<path class="st0" d="M107,11.9c0.3,0.3,0.9,0.4,1.2,0c0.2-0.2,0.4-0.5,0.4-0.9c0-0.2,0-0.4-0.2-0.6c-0.1-0.2-0.3-0.3-0.5-0.4
	c-0.2-0.1-0.4-0.1-0.6,0c-0.3,0.1-0.5,0.3-0.6,0.5C106.6,11,106.6,11.5,107,11.9z"/>
<path class="st0" d="M97.5,15c0.3,0.2,0.6,0.2,1,0.2h0.1c0.4-0.2,0.6-0.5,0.6-0.9c0-0.3-0.1-0.5-0.4-0.7s-0.5-0.3-0.9-0.3
	c-0.1,0-0.3,0-0.4,0.1c-0.3,0.1-0.4,0.3-0.5,0.6C97,14.4,97.2,14.8,97.5,15z"/>
<path class="st0" d="M80.1,64.4c-0.2-0.1-0.4-0.1-0.7-0.1c-0.3,0.1-0.6,0.2-0.9,0.4c-0.3,0.2-0.4,0.5-0.5,0.9c0,0.4,0,0.7,0.1,1.1
	c0.1,0.3,0.3,0.6,0.5,0.9c0.2,0.2,0.5,0.3,0.8,0.3s0.6-0.1,0.8-0.3c0.2-0.2,0.3-0.4,0.4-0.6c0.1-0.3,0.2-0.7,0.2-1s0-0.6-0.2-0.9
	C80.7,64.7,80.4,64.5,80.1,64.4z"/>
<path class="st0" d="M94.1,62.1c-0.1,0.3-0.2,0.7-0.5,0.8s-0.7,0.1-1-0.1c-0.2-0.1-0.3-0.3-0.5-0.5c-0.8-0.9-1.6-1.7-2.4-2.6
	c-0.3-0.3-0.6-0.6-0.9-0.9c-0.4-0.5-0.9-1-1.5-1.2c-0.1-0.1-0.3-0.2-0.4-0.3c-0.5-0.4-0.5-1,0-1.5c0.1-0.1,0.2-0.2,0.4-0.3
	c0.5-0.3,0.9-0.7,1.2-1.2c0.2-0.2,0.4-0.5,0.6-0.6c0.6-0.3,1.2-0.1,1.5,0.6c0.1,0.3,0,0.6-0.2,0.8s-0.5,0.4-0.7,0.6
	c-0.6,0.5-0.6,1-0.1,1.5c0.6,0.6,1.3,1.1,1.9,1.7c0.7,0.7,1.5,1.4,2.2,2.2C93.9,61.4,94.1,61.7,94.1,62.1z"/>
<path class="st0" d="M98.6,68.9c0,0.8-0.7,1.2-1.3,0.8c-0.2-0.1-0.3-0.2-0.4-0.4c-0.4-0.5-0.8-0.9-1.3-1.2c-0.4-0.2-0.6-0.6-0.7-1
	c-0.2-0.7,0.4-1.2,1-1.1c0.2,0,0.4,0.1,0.5,0.2c0.8,0.5,1.4,1.2,2,2C98.5,68.5,98.6,68.8,98.6,68.9z"/>
<path class="st0" d="M88.9,62.2c0,0.6-0.5,1.1-1.1,1s-1-0.5-1.3-1c-0.2-0.4-0.1-0.8,0.1-1.1c0.1-0.2,0.4-0.3,0.5-0.3
	C88,60.6,88.8,61.4,88.9,62.2z"/>
<path class="st0" d="M91.7,67.8c-0.8,0-1.7-0.9-1.5-1.8c0-0.2,0.2-0.4,0.4-0.5c0.7-0.3,1.4-0.1,1.8,0.6c0.1,0.2,0.2,0.5,0.2,0.8
	C92.7,67.4,92.3,67.7,91.7,67.8z"/>
<path class="st0" d="M101.3,63.8c0,0.1,0,0.2,0,0.3c-0.1,0.5-0.4,0.8-1,0.7c-0.3-0.1-0.6-0.2-0.8-0.3c-0.4-0.3-0.6-1-0.4-1.4
	s0.9-0.7,1.5-0.5C101,62.7,101.3,63.2,101.3,63.8z"/>
<path class="st0" d="M96.6,62.8c-0.6,0-1-0.3-1-0.9c0-0.6,0.4-1.1,1.1-1.1c0.6,0,1,0.4,1,1C97.7,62.4,97.2,62.8,96.6,62.8z"/>
<path class="st0" d="M147.2,63.4c0.3-0.1,0.4-0.2,0.6-0.4c0.2-0.3,0.2-0.6,0.1-1c-0.1-0.4-0.4-0.7-0.8-0.8c-0.1,0-0.1,0-0.2,0
	c-0.1,0-0.2,0-0.3,0l0,0c-0.1,0-0.2,0-0.3,0c-0.2,0-0.4,0.1-0.6,0.3c-0.1,0.1-0.2,0.2-0.2,0.3c-0.1,0.4-0.1,0.7,0.1,1
	C146,63.3,146.7,63.6,147.2,63.4z"/>
<path class="st0" d="M17.4,4.5c0.2,0.1,0.3,0.2,0.5,0.2c0.3,0.1,0.5,0,0.7-0.2s0.3-0.4,0.3-0.7c0,0,0-0.1,0-0.2c0-0.1,0-0.1-0.1-0.2
	c-0.2-0.4-0.6-0.7-1-0.6c-0.1,0-0.2,0.1-0.4,0.1C17.2,3,17.1,3.2,17,3.4C17,3.8,17.1,4.2,17.4,4.5z"/>
<path class="st0" d="M123,3.5c-0.1,0.1-0.1,0.3-0.3,0.4c-0.1,0.1-0.2,0.2-0.3,0.2c-0.1,0.1-0.3,0.2-0.4,0.3c-0.4,0.3-0.7,0.6-1,1
	c-0.2,0.3-0.5,0.6-0.8,0.9c-0.1,0.1-0.2,0.2-0.3,0.3c-0.4,0.4-0.8,0.7-1.1,1.2c0,0.1-0.1,0.1-0.1,0.2c-0.1,0.2-0.3,0.3-0.5,0.4
	c-0.3,0.2-0.7,0.3-1,0.1c-0.2-0.1-0.4-0.2-0.6-0.4c-0.1-0.1-0.1-0.3-0.1-0.4s0-0.2,0.1-0.3c0.1-0.2,0.2-0.3,0.3-0.5
	c0.2-0.2,0.4-0.4,0.6-0.6c0.3-0.2,0.6-0.4,0.8-0.7c0.4-0.4,0.7-0.7,1.1-1l0,0c0.4-0.3,0.7-0.7,1-1.2c0.2-0.3,0.4-0.5,0.6-0.7
	c0.3-0.4,0.8-0.5,1.2-0.5c0.3,0,0.5,0.2,0.7,0.4v0.1c0,0.1,0,0.2,0,0.3l0,0l0,0C123.1,3.2,123.1,3.3,123,3.5z"/>
<path class="st0" d="M106.4,5.6c0.2-0.2,0.4-0.3,0.6-0.4s0.4-0.3,0.6-0.4c0.1-0.1,0.3-0.3,0.4-0.4c0.2-0.2,0.3-0.3,0.5-0.5
	c0.2-0.2,0.5-0.3,0.7-0.3c0.3,0,0.5,0.1,0.7,0.2c0.3,0.2,0.5,0.5,0.3,1c-0.1,0.2-0.3,0.4-0.4,0.6c-0.1,0.1-0.3,0.3-0.4,0.4
	c-0.4,0.3-0.8,0.6-1,1c-0.1,0.2-0.3,0.3-0.4,0.5c-0.3,0.2-0.5,0.4-0.8,0.5c-0.4,0.1-0.7,0-0.9-0.2c-0.3-0.3-0.5-0.8-0.2-1.3
	C106.1,6,106.3,5.8,106.4,5.6z"/>
<path class="st0" d="M39.5,67.6c-0.1,0-0.2,0-0.3,0c-0.2,0-0.4-0.1-0.5-0.2c-0.4-0.3-0.6-0.8-0.5-1.3c0-0.2,0.1-0.4,0.2-0.6
	c0.3-0.3,0.6-0.5,1-0.5h0.1c0.4,0,0.8,0.2,0.9,0.6c0.2,0.5,0.2,0.9-0.1,1.4C40.2,67.4,39.9,67.6,39.5,67.6z"/>
<path class="st0" d="M26.5,69.1c-0.4,0-0.7-0.1-1-0.3c-0.1-0.1-0.3-0.2-0.3-0.4c-0.1-0.3-0.1-0.7,0-1c0.1-0.2,0.3-0.4,0.6-0.5
	c0.1,0,0.3,0,0.4,0s0.1,0,0.2,0c0.3,0,0.5,0.1,0.8,0.2c0.2,0.1,0.3,0.3,0.4,0.5c0.1,0.3,0,0.5-0.1,0.8C27.2,68.8,26.9,69,26.5,69.1z
	"/>
<path class="st0" d="M33.5,68.8c-0.1,0-0.2-0.1-0.3-0.1c-0.3-0.2-0.4-0.4-0.5-0.7c-0.1-0.3,0-0.5,0-0.8c0.1-0.4,0.4-0.7,0.9-0.7
	c0.1,0,0.1,0,0.1,0c0.1,0,0.2,0,0.3,0c0.2,0,0.4,0.1,0.6,0.2c0.3,0.2,0.5,0.5,0.4,0.9C34.9,68.4,34.2,68.9,33.5,68.8z"/>
<path class="st0" d="M1.8,60.2c-0.2-0.1-0.4-0.2-0.6-0.3s-0.3-0.3-0.4-0.5c-0.1-0.3-0.1-0.6,0.1-0.8c0.1-0.2,0.2-0.3,0.4-0.4
	C1.4,58.1,1.7,58,2,58.1c0.2,0,0.4,0.1,0.6,0.1c0.2,0.1,0.3,0.2,0.4,0.3c0.2,0.2,0.3,0.5,0.2,0.8S3,59.8,2.8,60.1
	C2.4,60.2,2.1,60.3,1.8,60.2z"/>
<path class="st0" d="M9.8,68.3c-0.2,0.1-0.4,0.2-0.7,0.1s-0.5-0.3-0.7-0.6c-0.1-0.2-0.1-0.3-0.1-0.5s0-0.4,0.1-0.6
	c0.2-0.3,0.5-0.6,0.9-0.6c0.1,0,0.2,0,0.2,0c0.2,0,0.4,0.1,0.6,0.2c0.2,0.1,0.3,0.3,0.3,0.4C10.6,67.4,10.3,68,9.8,68.3z"/>
<path class="st0" d="M71.4,12.4c0.2,0.1,0.3,0.2,0.5,0.2c0.3,0.1,0.5,0,0.7-0.2s0.3-0.4,0.3-0.7c0,0,0-0.1,0-0.2
	c0-0.1,0-0.1-0.1-0.2c-0.2-0.4-0.6-0.7-1-0.6c-0.1,0-0.2,0.1-0.4,0.1c-0.2,0.1-0.3,0.3-0.4,0.5C71,11.7,71.1,12.1,71.4,12.4z"/>
<path class="st0" d="M83,58.4c0.1,0,0.1-0.1,0.2-0.1l0.1-0.1c0.1-0.1,0.3-0.2,0.4-0.3c0.3-0.3,0.5-0.8,0.2-1.3
	c-0.1-0.2-0.3-0.4-0.5-0.6c-0.6-0.5-1.1-1-1.5-1.6c-0.1-0.1-0.1-0.2-0.2-0.2c-0.1-0.1-0.2-0.2-0.3-0.2c-0.2-0.2-0.4-0.2-0.5-0.2l0,0
	c-0.3,0-0.5,0.1-0.7,0.2C80,54.1,80,54.3,80,54.6s0.1,0.6,0.2,0.8s0.3,0.4,0.4,0.5s0.1,0.1,0.2,0.2c0.1,0.1,0.1,0.1,0.2,0.2
	c0.2,0.3,0.4,0.6,0.5,1c0.1,0.5-0.1,1-0.5,1.3h-0.1c-0.1,0.1-0.3,0.2-0.4,0.2c-0.3,0.2-0.6,0.4-0.8,0.7c-0.2,0.2-0.2,0.4-0.2,0.6
	c0,0.2,0.1,0.4,0.2,0.5s0.2,0.3,0.4,0.4c0.2,0.1,0.4,0.3,0.6,0.4l0.2,0.1c0.3,0.2,0.5,0.4,0.7,0.7c0.1,0.1,0.1,0.2,0.2,0.2l0,0
	c0.1,0.1,0.1,0.2,0.2,0.2c0.1,0.2,0.3,0.4,0.5,0.6c0.2,0.1,0.4,0.2,0.7,0.3c0.3,0,0.5-0.1,0.7-0.3c0.4-0.4,0.5-1.1,0-1.7
	c-0.1-0.1-0.2-0.2-0.3-0.3l0,0c-0.2-0.2-0.4-0.4-0.6-0.6c-0.2-0.3-0.3-0.6-0.3-0.9c0-0.5,0.1-0.9,0.5-1.1
	C82.9,58.5,82.9,58.5,83,58.4z"/>
<path class="st0" d="M37.4,11.6c-0.1-0.1-0.3-0.2-0.4-0.2v-0.1l0,0v0.1c-0.3,0-0.6,0-0.8,0.2c-0.2,0.1-0.3,0.2-0.4,0.4l-0.1,0.2
	c-0.1,0.2-0.3,0.4-0.4,0.6c-0.2,0.3-0.5,0.5-0.8,0.7c-0.2,0.1-0.4,0.2-0.6,0.4L33.6,14c-0.2,0.1-0.4,0.3-0.5,0.4
	c-0.1,0.2-0.2,0.4-0.2,0.6c0,0.2,0,0.4,0.1,0.5c0.1,0.2,0.2,0.3,0.3,0.5l0.2,0.2c0.2,0.2,0.4,0.5,0.6,0.7c0.3,0.3,0.6,0.6,0.7,0.9
	c0.1,0.2,0.3,0.4,0.5,0.6c0.1,0.2,0.3,0.3,0.6,0.4c0.2,0.1,0.4,0.1,0.6,0.1c0.4,0,0.7-0.3,0.8-0.7c0.1-0.4,0-0.8-0.3-1.1
	c-0.1-0.1-0.2-0.2-0.3-0.3l-0.1-0.1c-0.1-0.1-0.1-0.1-0.2-0.2c-0.1-0.1-0.2-0.2-0.3-0.2c-0.2-0.2-0.3-0.4-0.4-0.6
	c-0.2-0.3-0.2-0.7-0.1-1c0.1-0.3,0.3-0.6,0.6-0.8c0.1-0.1,0.2-0.2,0.4-0.2c0.1,0,0.1-0.1,0.2-0.1l0.1-0.1c0.1-0.1,0.3-0.1,0.4-0.2
	c0.2-0.1,0.3-0.3,0.4-0.5c0.1-0.3,0.1-0.6,0-0.9C37.6,11.8,37.5,11.7,37.4,11.6z"/>
<path class="st0" d="M107.7,15.2c0.3,0.3,0.2,0.2,0.5,0.5c0.5,0.5,1,1,1.6,1.3c0.1,0.1,0.2,0.1,0.3,0.2c0.6,0.4,0.6,1.1,0.1,1.5
	c-0.3,0.3-0.6,0.4-0.9,0.7c-0.5,0.4-0.5,0.8-0.2,1.2c0.1,0.2,0.3,0.4,0.5,0.6s0.4,0.4,0.6,0.7c0.4,0.6,0.1,1.3-0.7,1.4
	c-0.4,0-0.8-0.1-1.2-0.4c-0.6-0.6-1.1-1.2-1.7-1.7c-0.1-0.1-0.2-0.3-0.3-0.4c-0.2-0.3-0.1-0.7,0.2-0.9c0.2-0.2,0.5-0.4,0.7-0.6
	c0.5-0.4,0.6-0.9,0.2-1.5c-0.1-0.2-0.3-0.4-0.5-0.6c-0.5-0.4-0.6-0.5-1.1-0.9C104.6,15.1,106,13.5,107.7,15.2z"/>
<path class="st0" d="M98.7,6.3c-0.2-0.1-0.3-0.3-0.4-0.5c-0.7-0.7-1.3-1.4-2-2c-0.6-0.6-1.3-0.6-1.9,0c-0.6,0.5-1.1,1-1.6,1.5
	c-0.2,0.2-0.3,0.5-0.4,0.6c-0.1,0.6,0.1,0.9,0.5,1.1s0.7,0.2,1.1-0.1c0.3-0.3,0.5-0.5,0.8-0.8c0.3-0.2,0.6-0.2,1,0
	c0.1,0.1,0.3,0.2,0.4,0.3c0.7,0.8,1.4,1.5,2.1,2.3c0.3,0.3,0.7,0.6,1,0.9c0.3,0.2,0.5,0.4,0.8,0.7c0.7,0.7,0.9,1,1.6,1.7
	c0.5,0.5,0.8,0.8,1.3,1.3c1.1,1.1,2.6-0.7,1.3-1.7c-0.8-0.6-1.6-1.4-2.6-2.3c-0.2-0.2-0.4-0.4-0.5-0.6L98.7,6.3z"/>
<path class="st0" d="M102.1,19.6c-0.8,0-1.5-0.9-1.2-1.7c0.1-0.2,0.3-0.5,0.5-0.5c0.5-0.3,1.2,0,1.6,0.4c0.3,0.4,0.4,0.8,0.2,1.2
	C102.9,19.4,102.6,19.6,102.1,19.6z"/>
<path class="st0" d="M18.6,66.7c0,0.5-0.1,0.8-0.4,1.1c-0.5,0.5-1,1.1-1.5,1.6c-0.2,0.2-0.5,0.3-0.7,0.4c-0.4,0.1-0.8-0.1-1-0.4
	s-0.2-0.7,0.2-1.1c0.2-0.2,0.4-0.3,0.6-0.5c0.5-0.5,0.6-1,0.1-1.5c-0.5-0.6-1.8-1.7-2.4-2.3c-0.3-0.3-0.6-0.6-0.9-1
	c-0.2-0.3-0.2-0.8,0.1-1.1c0.1-0.1,0.1-0.1,0.2-0.2c0.6-0.4,1-0.9,1.4-1.5c0.3-0.6,0.9-0.7,1.4-0.3c0.5,0.3,0.5,1.1,0.1,1.6
	c-0.1,0.1-0.2,0.2-0.3,0.2c-0.7,0.7-0.7,1.1,0,1.8c0.6,0.5,1.8,1.8,2.4,2.3c0.2,0.2,0.4,0.3,0.5,0.5C18.5,66.5,18.6,66.7,18.6,66.7z
	"/>
<path class="st0" d="M9.6,64c-0.4,0-0.6-0.2-0.9-0.4c-1.1-1.2-2.1-2.4-3.2-3.5c-0.7-0.8-0.7-1.4,0-2.2c0.4-0.4,0.8-1,1.1-1.3
	c0.3-0.3,0.5-0.5,0.8-0.6s0.8,0.1,1,0.3c0.2,0.3,0.2,0.6,0.1,1c-0.1,0.2-0.3,0.3-0.4,0.5C8,58,7.8,58.1,7.6,58.3
	c-0.4,0.5-0.4,1.3,0.2,1.8c0.7,0.6,1.4,1.1,2.1,1.7c0.1,0.1,0.3,0.2,0.4,0.3c0.5,0.4,0.7,0.7,0.6,1.3C10.7,63.6,10.2,64,9.6,64z"/>
<path class="st0" d="M13.4,57.4c-0.4,0-0.7-0.1-0.9-0.5c-0.4-0.7-1-1.3-1.6-1.8c-0.2-0.2-0.3-0.5-0.4-0.8c-0.2-0.7,0.4-1.3,1.1-1.1
	c0.2,0,0.4,0.1,0.6,0.2c0.7,0.7,1.4,1.4,2.1,2.1c0.1,0.1,0.2,0.4,0.2,0.6C14.7,56.8,14.2,57.4,13.4,57.4z"/>
<path class="st0" d="M46.2,5.3c0.4,0,0.8,0.1,1,0.4c0.6,0.8,1.7,1.8,2.7,1.8c0.6,0,1,0.3,1.3,0.7C51.4,8.5,51.7,8.7,52,9
	c0.4,0.4,1,0.4,1.4,0.1c0.3-0.3,0.5-0.6,0.8-0.9c0.4-0.4,1-0.5,1.4-0.1s0.3,0.9-0.1,1.4C55.2,9.7,55,9.8,54.8,10
	c-0.5,0.5-0.5,1,0,1.5c0.7,0.6,1.4,1.2,2.1,1.9c0.3,0.3,0.6,0.6,0.8,1c0.2,0.3,0.2,0.7,0,1c-0.2,0.4-0.7,0.6-1.1,0.4
	c-0.3-0.2-0.7-0.4-1-0.6c-0.5-0.4-0.9-0.9-1.3-1.4c-0.6-0.6-1.2-1.2-1.9-1.8c-0.4-0.3-0.7-0.7-0.9-1c-0.4-0.5-0.8-0.7-1.4-0.7
	c-0.1,0-0.2,0-0.3,0c-1,0.1-2.2-0.8-2.7-1.7c-0.2-0.4-0.7-0.7-1.1-1c-0.3-0.2-0.6-0.5-0.7-0.9C45.1,6,45.5,5.3,46.2,5.3z"/>
<path class="st0" d="M70.9,16.1c0,0.7-0.5,1.3-1.1,1.6c-0.7,0.3-1.7,0.1-2.2-0.6c-0.2-0.3-0.4-0.6-0.6-0.8c-0.6-0.6-1.4-0.5-1.9,0.1
	c-0.2,0.2-1,1.4-1.2,1.6c-0.3,0.4-0.9,0.5-1.4,0.1s-0.6-1-0.2-1.5c0.2-0.2,1.2-1.3,1.5-1.5c0.5-0.4,0.6-0.9,0.2-1.5
	c-0.1-0.2-0.3-0.3-0.5-0.4c-0.2-0.2-0.4-0.3-0.5-0.5c-0.3-0.4-0.3-0.7-0.1-1.1c0.2-0.4,0.6-0.5,1-0.4c0.4,0,0.7,0.3,1,0.5
	c0.7,0.7,1.4,1.5,2.1,2.2c0.5,0.6,1.1,0.9,1.9,0.9c0.3,0,0.6,0,0.9,0.1C70.6,15.1,70.9,15.5,70.9,16.1z"/>
<path class="st0" d="M48.5,15.2c0,0.1,0,0.3-0.1,0.5c-0.3,0.6-0.9,0.8-1.5,0.5c-0.2-0.1-0.4-0.3-0.5-0.5c-0.7-1.3-1.8-2.2-2.8-3.3
	c-0.7-0.8-3.4-3.4-4.2-4.2C39.2,8,39,7.8,38.9,7.5c-0.2-0.4-0.1-0.9,0.2-1.3c0.3-0.3,0.8-0.4,1.2-0.2c0.3,0.2,0.6,0.5,0.9,0.7
	c1.4,1.5,4.7,4.9,6.1,6.4c0.3,0.3,0.6,0.5,0.9,0.8C48.4,14.3,48.6,14.6,48.5,15.2z"/>
<path class="st0" d="M148.9,66.8c0-0.1,0-0.3,0.1-0.4c0.2-0.7,0.9-0.9,1.4-0.5c0.2,0.2,0.4,0.4,0.5,0.5c0.1,0.2,0.3,0.3,0.4,0.5
	c0.4,0.4,1,0.3,1.4-0.1c0.2-0.2,1.7-1.9,1.9-2.1c0.4-0.5,1.1-0.5,1.6-0.1c0.4,0.4,0.5,1.2,0.1,1.6c-0.8,0.7-3,2.8-3.9,3.4
	c-0.5,0.3-1,0.2-1.5-0.2c-0.6-0.5-1.1-1.1-1.7-1.6C149,67.5,148.9,67.3,148.9,66.8z"/>
<path class="st0" d="M154.5,61.1c-0.1,0.7-0.3,1-0.7,1.2c-0.4,0.1-0.9,0-1.1-0.4c-0.3-0.4-0.3-0.8,0-1.2c0.3-0.5,0.8-0.7,1.1-0.6
	C154.2,60.3,154.5,60.8,154.5,61.1z"/>
<path class="st0" d="M157,38.7c0,0.5-0.4,0.8-0.9,0.8c-0.4-0.1-0.7-0.3-0.9-0.6c-0.5-0.5-0.3-0.5-0.4-0.7c-0.3-0.3-1-0.3-1.3,0.1
	c-0.3,0.3-0.6,0.6-0.8,0.9c-0.3,0.4-0.3,0.8,0,1.2c0.2,0.2,0.5,0.4,0.7,0.6c0.4,0.4,0.8,0.7,1.2,1.1c0.2,0.2,0.3,0.4,0.4,0.6
	c0.2,0.3,0.1,0.7-0.1,0.9c-0.3,0.3-0.7,0.4-1,0.2c-0.1-0.1-0.2-0.1-0.3-0.2c-0.6-0.6-1.2-1.3-1.9-1.9c-0.2-0.2-0.4-0.4-0.6-0.7
	c-0.1-0.1-0.3-0.2-0.4-0.3c-0.5-0.6-0.5-1,0.1-1.5c0.1,0,0.1-0.1,0.2-0.1c0.7-0.5,0.6-1.2,0-1.7c-0.5-0.4-1-0.8-1.5-1.2
	c-0.2-0.1-0.3-0.2-0.5-0.4c-0.5-0.4-0.5-0.9-0.2-1.3c0.4-0.4,0.9-0.5,1.4-0.1c0.5,0.5,0.9,1,1.4,1.5c0.2,0.2,0.3,0.4,0.4,0.6
	c0.1,0.1,0.2,0.3,0.4,0.3c0.4,0.2,0.8,0.1,1.1-0.2c0.2-0.2,0.3-0.5,0.5-0.7c0.4-0.4,0.8-0.4,1.2,0c0.2,0.2,0.3,0.4,0.4,0.6
	c0.2,0.3,0.5,0.5,0.7,0.7c0.4,0.4-0.1-0.1,0.6,0.5C156.8,38.2,157,38.4,157,38.7z"/>
<path class="st0" d="M4,12.1c-0.1,0.1-0.2,0.4-0.3,0.6C3.5,12.9,3.2,13,3,13.2c-0.7,0.6-0.7,1.1-0.1,1.8c0.2,0.2,0.3,0.3,0.5,0.5
	C4.2,16.2,5,17,5.8,17.7c0.3,0.3,0.6,0.5,0.9,0.8c0.1,0.1,0.3,0.2,0.4,0.4c0.6,0.8,1.2,1.5,2,2.1c0.9,0.8,0.6,2.3-0.4,2.9
	c-0.6,0.3-1.2,0.2-1.5-0.4C7.1,23.2,7,22.9,7,22.6c0-0.9-0.4-1.5-0.9-2.2C5,19.2,3.8,18,2.5,16.9c-0.8-0.7-1.4-1.4-2.1-2.2
	c-0.5-0.5-0.5-1.2,0.1-1.6c0.6-0.5,1.2-1,1.6-1.7c0.2-0.4,0.6-0.6,1.1-0.5C3.6,11.1,4,11.5,4,12.1z"/>
<path class="st0" d="M6,1.7c0.6,0,1,0.6,0.8,1.1C6.6,3.1,6.4,3.3,6.2,3.5c-0.6,0.6-0.5,1.2,0,1.7c0.2,0.2,0.3,0.3,0.5,0.5
	C7,6.2,6.9,6.7,6.6,7C6.1,7.4,5.5,7.5,5.2,7C4.6,6.3,4,5.6,3.4,4.9C3,4.6,3.1,4.1,3.5,3.7c0.6-0.6,1.3-1.2,2-1.8
	C5.6,1.8,5.9,1.8,6,1.7z"/>
<path class="st0" d="M12,30c-0.6,0-1.1-0.5-1.1-1.1c0-0.8,0.6-1.4,1.3-1.4s1.2,0.5,1.3,1.2C13.4,29.4,12.8,30,12,30z"/>
<path class="st0" d="M1.4,0.1c0.7,0,1.1,0.4,1.1,1.1C2.5,2,2,2.5,1.3,2.5C0.5,2.5,0,2,0.1,1.4C0.1,0.6,0.7,0,1.4,0.1z"/>
<path class="st0" d="M6.8,25.8C7.5,25.8,8,26.4,8,27s-0.6,1.1-1.2,1.1c-0.7,0-1.3-0.6-1.2-1.3C5.6,26.2,6.2,25.7,6.8,25.8z"/>
<path class="st0" d="M13.7,20c0.7,0,1.2,0.6,1.2,1.2s-0.6,1.1-1.2,1.1c-0.7,0-1.3-0.6-1.2-1.3C12.5,20.4,13.1,20,13.7,20z"/>
<path class="st0" d="M8,13.2c0,0.6-0.2,0.9-0.6,1.1c-0.4,0.2-0.8,0.1-1.2-0.2c-0.2-0.2-0.3-0.4-0.4-0.6c-0.2-0.5-0.1-1,0.4-1.3
	s1.1-0.2,1.4,0.3C7.9,12.7,8,13,8,13.2z"/>
<path class="st0" d="M2.3,8.3c0,0.6-0.5,1-1,1c-0.6,0-1.1-0.5-1.1-1.1s0.4-1.1,1-1.1C1.8,7.2,2.4,7.7,2.3,8.3z"/>
<path class="st0" d="M3.9,22.3C3.9,23,3,23.4,2.5,23c-0.2-0.2-0.4-0.4-0.6-0.7c-0.2-0.4-0.1-0.8,0.2-1.1c0.3-0.3,0.7-0.3,1.1-0.1
	C3.6,21.3,4,21.9,3.9,22.3z"/>
<path class="st0" d="M8.7,32.9c0,0.6-0.5,1.2-1,1.4c-0.7,0.2-1.6,0.1-2-0.6c-0.2-0.3-0.3-0.5-0.5-0.8c-0.5-0.6-1.3-0.5-1.7,0.1
	c-0.2,0.2-0.3,0.5-0.4,0.7c-0.3,0.4-0.9,0.4-1.3,0.1c-0.5-0.4-0.5-1-0.1-1.3c0.2-0.2,0.5-0.4,0.8-0.6C3,31.5,3,31,2.7,30.6
	c-0.1-0.2-0.3-0.3-0.4-0.4c-0.2-0.2-0.4-0.3-0.5-0.5c-0.3-0.3-0.3-0.7-0.1-1s0.5-0.4,0.9-0.4s0.7,0.2,0.9,0.5c0.7,0.7,1.3,1.3,2,2
	c0.5,0.5,1,0.8,1.8,0.8c0.3,0,0.6,0,0.8,0.1C8.4,31.9,8.7,32.3,8.7,32.9z"/>
<path class="st0" d="M14.6,11.2c-0.1,0.1-0.2,0.4-0.3,0.6c-0.2,0.2-0.5,0.4-0.7,0.5c-0.6,0.4-0.7,1.2-0.1,1.8c0.2,0.2,1.3,1,1.5,1.2
	s0.5,0.5,0.7,0.7c0.2,0.4,0,0.8-0.2,1.1c-0.2,0.3-0.6,0.4-1,0.2c-0.3-0.1-0.6-0.3-0.8-0.6c-0.5-0.7-2.1-1.9-2.8-2.4
	c-0.1-0.1-0.2-0.2-0.3-0.3c-0.3-0.4-0.3-0.9,0-1.3c0.3-0.2,0.6-0.4,0.8-0.6c0.4-0.4,0.5-0.8,0.2-1.3c-0.1-0.3-0.3-0.5-0.6-0.7
	c-0.5-0.5-1-0.9-1.5-1.4C9.1,8.4,8.7,7.9,8.4,7.5C8.3,7.3,8.2,7,8.2,6.8c0-0.4,0.3-0.6,0.7-0.6c0.6,0,1.2,0.3,1.6,0.7
	c0.5,0.5,1,0.9,1.5,1.5c0.6,0.6,1.2,1.2,1.9,1.7C14.4,10.3,14.6,10.7,14.6,11.2z"/>
<path class="st0" d="M121.3,58c-0.1,0.1-0.2,0.4-0.3,0.5c-0.2,0.2-0.4,0.3-0.6,0.5c-0.6,0.5-0.7,1.1-0.1,1.7
	c0.1,0.2,0.3,0.3,0.5,0.4c0.8,0.7,1.5,1.4,2.3,2.1c0.3,0.2,0.9,0.8,1.2,1.1c0.1,0.1,0.3,0.2,0.4,0.3c0.6,0.7,1.2,1.4,1.9,2
	c0.8,0.7,0.5,2.2-0.4,2.7c-0.5,0.3-1.1,0.2-1.4-0.4c-0.1-0.2-0.2-0.5-0.2-0.7c0-0.8-0.3-1.4-0.9-2.1c-1.1-1.2-2.5-2.6-3.7-3.6
	c-0.7-0.6-1.4-1.3-2-2c-0.5-0.5-0.4-1.1,0.1-1.5c0.6-0.5,1.1-1,1.5-1.6c0.2-0.4,0.6-0.6,1-0.5C121,57,121.3,57.4,121.3,58z"/>
<path class="st0" d="M155,52.8c-0.1,0-0.3,0-0.4,0c-0.5,0-0.9,0.2-1.1,0.7c0,0.1-0.1,0.1-0.1,0.2c-0.3,0.7-0.8,0.9-1.5,0.3
	c-0.6-0.5-1.1-1.1-1.6-1.7c-0.2-0.2-0.3-0.5-0.3-0.8c0-0.4,0.4-0.8,0.8-0.6c0.3,0.1,0.5,0.3,0.7,0.4c0.2,0.2,0.4,0.4,0.7,0.5
	c0.5,0.3,0.8,0.2,1.1-0.3c0.1-0.1,0.1-0.3,0.2-0.4c0.3-0.8,1.3-0.9,1.9-0.7c0.4,0.1,0.7,0.4,1,0.7c0.4,0.6,0.3,1.5-0.7,1.6
	C155.5,52.9,155.2,52.8,155,52.8L155,52.8z"/>
<path class="st0" d="M20.8,0.1c0.2,0.1,0.5,0.3,0.7,0.5s0.4,0.5,0.6,0.7c0.5,0.5,0.9,0.4,1.3-0.1c0.2-0.2,0.3-0.5,0.4-0.7
	c0.3-0.4,0.8-0.4,1.2-0.1c0.3,0.3,0.4,0.9,0.1,1.2C25,1.8,24.8,2,24.6,2.2c-0.5,0.4-0.5,0.9,0,1.4c0.1,0.1,0.3,0.2,0.5,0.3
	c0.1,0.1,1.3,1,1.4,1.1c0.3,0.3,0.4,0.9,0.2,1.3c-0.2,0.4-0.9,0.6-1.3,0.4c-0.2-0.1-0.4-0.3-0.6-0.5c-0.5-0.5-2-1.8-2.5-2.3
	c-0.1-0.1-0.3-0.3-0.4-0.4c-0.4-0.5-0.9-1-1.4-1.4c-0.3-0.2-0.5-0.4-0.6-0.8C19.6,0.7,20.1,0.1,20.8,0.1z"/>
<path class="st0" d="M2.6,66c0,0,0,0.3,0.1,0.6c0.1,0.5,0.6,0.7,1,0.4c0.2-0.1,0.3-0.2,0.5-0.4c0.2-0.2,0.3-0.4,0.5-0.5
	c0.4-0.3,0.8-0.3,1.2,0c0.3,0.3,0.4,0.7,0.2,1.1c0,0,0,0.1-0.1,0.1c-0.7,0.7-1.3,1.4-2,2c-0.4,0.4-1,0.3-1.4-0.1
	c-0.7-0.9-1.5-1.6-2.1-2.5S0,64.8,1.2,64.1c0.6-0.4,1.4-0.1,1.5,0.7C2.7,65.1,2.6,65.5,2.6,66z"/>
<path class="st0" d="M138.4,59.5c-0.1,0.1-0.1,0.4-0.2,0.6c-0.2,0.2-0.4,0.4-0.6,0.6c-0.4,0.5-0.4,0.9,0.1,1.3
	c0.2,0.2,0.5,0.3,0.6,0.5c0.4,0.4,0.3,0.9-0.1,1.3c-0.2,0.2-0.4,0.3-0.6,0.4c-0.5,0.4-0.7,0.9-0.3,1.4c0.2,0.3,0.4,0.5,0.7,0.7
	c0.5,0.4,1,0.8,1.4,1.3c0.3,0.3,0.5,0.7,0.8,1c0.2,0.3,0.2,0.6-0.1,0.9c-0.2,0.3-0.5,0.4-0.9,0.3c-0.3-0.1-0.6-0.3-0.9-0.6
	c-0.6-0.6-1.1-1.1-1.6-1.7c-0.4-0.5-0.8-0.9-1.3-1.2c-0.1-0.1-0.3-0.2-0.4-0.3c-0.5-0.5-0.6-1.3,0.1-1.7c0.2-0.1,0.4-0.2,0.5-0.3
	c0.4-0.3,0.5-0.9,0.1-1.4c-0.2-0.3-0.5-0.5-0.8-0.7c-0.4-0.4-0.4-0.8,0-1.3c0.5-0.6,1.1-1.2,1.7-1.7c0.2-0.2,0.5-0.3,0.7-0.3
	C137.9,58.5,138.4,58.9,138.4,59.5z"/>
<path class="st0" d="M31.9,55.9c0.1,0,0.4,0.1,0.6,0.3s0.8,0.7,1.3,1.2s2.4,2.2,3.4,3.1c0.2,0.1,0.3,0.2,0.5,0.4
	c0.4,0.5,0.4,1.2-0.1,1.6c-0.1,0.1-0.1,0.1-0.2,0.2c-0.6,0.4-1,0.9-1.4,1.4c-0.3,0.5-0.8,0.7-1.4,0.5c-0.8-0.2-1.1-1-0.6-1.7
	c0.2-0.2,0.4-0.4,0.6-0.5c0.8-0.6,0.6-1.2,0.1-1.7c-0.6-0.5-2.2-1.7-2.7-2.2c-0.3-0.3-0.9-0.6-1.2-1c-0.2-0.4-0.2-0.8,0-1.1
	C31.2,56.1,31.4,55.9,31.9,55.9z"/>
<path class="st0" d="M51.8,56.4c-0.1,0.1-0.2,0.4-0.3,0.6c-0.2,0.2-0.4,0.3-0.6,0.5c-0.7,0.6-0.7,1.1-0.1,1.8
	c0.2,0.2,0.3,0.3,0.5,0.5c0.8,0.7,1.2,1.3,2,2c0.3,0.3,1.3,1.2,1.6,1.5c0.1,0.1,1.4,1.4,1.5,1.6c0.6,0.8,1,1.1,1.8,1.8
	c0.9,0.8,0.6,2.3-0.4,2.9c-0.6,0.3-1.2,0.2-1.4-0.4c-0.1-0.2-0.2-0.5-0.2-0.8c0-0.8-0.4-1.7-0.9-2.3c-1.1-1.2-3.5-3.6-4.8-4.7
	c-0.8-0.6-1.4-1.4-2.1-2.1c-0.5-0.5-0.5-1.1,0.1-1.6s1.1-1,1.6-1.7c0.2-0.4,0.6-0.6,1.1-0.5C51.5,55.4,51.8,55.8,51.8,56.4z"/>
<path class="st0" d="M104.7,64c0.1,0.1,0.2,0.2,0.3,0.2c0.5,0.3,0.9,0.6,1.2,1.1c0.2,0.2,0.3,0.3,0.5,0.5s0.5,0.4,0.7,0.6
	c0.3,0.2,0.5,0.5,0.7,0.7s0.3,0.5,0.5,0.7c0.1,0.1,0.2,0.2,0.3,0.3c0.1,0.1,0.3,0.2,0.4,0.3c0.2,0.1,0.5,0.1,0.8,0.1
	c0.2,0,0.4-0.1,0.5-0.3c0.2-0.2,0.3-0.5,0.2-0.8c0-0.3-0.2-0.5-0.4-0.7c-0.2-0.2-0.4-0.4-0.7-0.6c-0.4-0.3-0.8-0.7-1.1-1.2
	c0,0,0,0,0-0.1c-0.2-0.2-0.4-0.4-0.6-0.6c-0.1,0-0.1-0.1-0.2-0.1c-0.3-0.2-0.6-0.5-0.9-0.8c-0.2-0.2-0.4-0.4-0.5-0.7
	c-0.1-0.1-0.2-0.3-0.3-0.4c-0.2-0.2-0.5-0.4-0.8-0.3c-0.2,0-0.5,0.1-0.7,0.2c-0.1,0-0.1,0.1-0.2,0.2c-0.2,0.2-0.3,0.5-0.2,0.8
	C104.3,63.5,104.4,63.7,104.7,64z"/>
<path class="st0" d="M22,49.4c0.2,0.1,1.4,1.1,1.5,1.3c0.3,0.2,0.6,0.5,0.9,0.7c0.5,0.4,2.1,2.1,2.6,2.5c0.1,0.1,0.3,0.3,0.4,0.4
	c0.2,0.2,0.4,0.5,0.6,0.7c0.2,0.3,0.5,0.5,0.8,0.7c0.2,0.1,0.5,0.2,0.7,0.2c0.4,0,0.7-0.3,0.7-0.7c0-0.2,0-0.4-0.1-0.6
	c-0.1-0.3-0.4-0.5-0.6-0.7c-0.3-0.3-0.6-0.5-0.8-0.8c-0.2-0.1-0.3-0.3-0.4-0.5c-0.1-0.1-0.3-0.3-0.4-0.4c-0.3-0.3-1.8-1.8-2.1-2.1
	c-0.1-0.1-0.2-0.3-0.3-0.4c-0.2-0.2-1.4-1.4-1.6-1.6c-0.1-0.1-0.2-0.2-0.3-0.3c-0.3-0.3-0.7-0.5-1.2-0.5s-0.9,0.3-0.9,0.8
	c0,0.3,0,0.7,0.2,0.9C21.7,49.2,21.9,49.3,22,49.4z"/>
<path class="st0" d="M148.4,26.3c0.1,0.1,0.3,0.2,0.4,0.3c0.3,0.2,0.6,0.4,0.9,0.7c0.1,0.1,0.1,0.2,0.2,0.2c0.3,0.3,0.5,0.5,0.8,0.8
	c0.3,0.2,0.5,0.5,0.7,0.7s0.3,0.3,0.5,0.5c0.3,0.4,0.8,0.6,1.2,0.9c0.1,0.1,0.3,0.1,0.4,0.1c0.2,0,0.4,0,0.6-0.1
	c0.3-0.2,0.4-0.5,0.4-0.8c0-0.4-0.2-0.7-0.5-0.9l-0.1-0.1c-0.2-0.1-0.3-0.2-0.5-0.3c-0.2-0.1-0.4-0.3-0.6-0.4
	c-0.3-0.2-0.6-0.5-0.8-0.8c-0.3-0.3-0.6-0.7-0.9-1c-0.3-0.3-0.7-0.6-0.9-1c-0.1-0.2-0.3-0.4-0.5-0.6c-0.3-0.3-0.6-0.4-1-0.4h-0.1
	c-0.2,0-0.3,0.1-0.5,0.2c-0.3,0.3-0.4,0.7-0.3,1.1C147.8,25.7,148.1,26,148.4,26.3z"/>
<path class="st0" d="M151.6,57.8c-0.1-0.1-0.1-0.3-0.3-0.4c-0.1-0.1-0.2-0.2-0.3-0.2c-0.1-0.1-0.3-0.2-0.4-0.3c-0.4-0.3-0.7-0.6-1-1
	c-0.2-0.3-0.5-0.6-0.8-0.9c-0.1-0.1-0.2-0.2-0.3-0.3c-0.4-0.4-0.8-0.7-1.1-1.2c0-0.1-0.1-0.1-0.1-0.2c-0.1-0.2-0.3-0.3-0.5-0.4
	c-0.3-0.2-0.7-0.3-1-0.1c-0.2,0.1-0.4,0.2-0.6,0.4c-0.1,0.1-0.1,0.3-0.1,0.4c0,0.1,0,0.2,0.1,0.3c0.1,0.2,0.2,0.3,0.3,0.5
	c0.2,0.2,0.4,0.4,0.6,0.6c0.3,0.2,0.6,0.4,0.8,0.7c0.4,0.4,0.7,0.7,1.1,1l0,0c0.4,0.3,0.7,0.7,1,1.2c0.2,0.3,0.4,0.5,0.6,0.7
	c0.3,0.4,0.8,0.5,1.2,0.5c0.3,0,0.5-0.2,0.7-0.4v-0.1c0-0.1,0-0.2,0-0.3l0,0l0,0C151.7,58.1,151.6,57.9,151.6,57.8z"/>
<path class="st0" d="M131.4,63.3c-0.1-0.2-0.3-0.3-0.5-0.5c-0.2-0.1-0.4-0.3-0.6-0.4c-0.3-0.2-0.5-0.5-0.7-0.8
	c-0.1-0.1-0.2-0.2-0.3-0.3c-0.2-0.2-0.3-0.4-0.5-0.5s-0.4-0.2-0.6-0.2c-0.2,0-0.3,0-0.5,0.1c-0.3,0.2-0.4,0.4-0.5,0.7
	c-0.1,0.2-0.1,0.5,0,0.7s0.2,0.3,0.3,0.4c0.1,0.1,0.2,0.2,0.3,0.3c0.2,0.2,0.4,0.3,0.7,0.5c0.2,0.2,0.5,0.4,0.6,0.6
	c0.1,0.1,0.2,0.3,0.3,0.4s0.2,0.3,0.4,0.4c0.3,0.3,0.7,0.4,1.1,0.3c0.1,0,0.2,0,0.3-0.1c0.2-0.1,0.4-0.2,0.5-0.4
	c0.1-0.3,0.2-0.5,0.1-0.8C131.6,63.7,131.6,63.5,131.4,63.3z"/>
<path class="st0" d="M30.5,63.1c-0.3-0.2-0.6-0.4-0.8-0.7c-0.2-0.2-0.3-0.3-0.4-0.5c-0.1-0.1-0.2-0.2-0.3-0.4
	c-0.2-0.2-0.5-0.4-0.8-0.6c-0.2-0.1-0.4-0.1-0.6,0s-0.4,0.2-0.5,0.4c-0.2,0.3-0.3,0.7-0.1,1.1c0,0.1,0.1,0.2,0.2,0.3
	c0.1,0.2,0.3,0.3,0.5,0.4c0.2,0.1,0.3,0.2,0.4,0.3c0.3,0.2,0.6,0.5,0.8,0.8c0.1,0.2,0.3,0.3,0.4,0.4s0.3,0.2,0.4,0.3
	c0.2,0.1,0.4,0.2,0.6,0.2s0.3,0,0.5-0.1c0.3-0.2,0.5-0.4,0.6-0.8c0-0.2,0-0.3-0.1-0.4C31.1,63.7,30.9,63.4,30.5,63.1z"/>
<path class="st0" d="M5.8,54.4C6,54.2,6,54,5.9,53.7c0-0.3-0.2-0.5-0.3-0.6c-0.3-0.3-0.5-0.5-0.9-0.7C4.4,52.2,4.2,52,4,51.8
	c-0.2-0.2-0.4-0.4-0.5-0.6c-0.2-0.3-0.4-0.4-0.8-0.6c-0.3-0.1-0.5-0.1-0.8,0c-0.2,0.1-0.3,0.1-0.4,0.3s-0.2,0.4-0.2,0.6
	c0,0.3,0.1,0.6,0.3,0.8c0.1,0.1,0.2,0.2,0.4,0.3c0.3,0.2,0.6,0.4,0.8,0.7c0.2,0.2,0.4,0.4,0.5,0.6C3.5,54,3.8,54.2,4,54.4
	c0.1,0.1,0.2,0.2,0.4,0.3c0.3,0.2,0.7,0.2,1,0.1C5.6,54.7,5.7,54.6,5.8,54.4z"/>
<path class="st0" d="M109.9,61.9c0.2,0.2,0.4,0.3,0.6,0.5c0.3,0.2,0.5,0.4,0.7,0.7c0.2,0.2,0.3,0.4,0.5,0.6c0.1,0.2,0.3,0.3,0.5,0.4
	c0.4,0.2,0.8,0.1,1.2-0.1c0.1-0.1,0.2-0.3,0.3-0.4c0-0.3,0-0.6-0.2-0.8c-0.1-0.1-0.2-0.3-0.3-0.4c-0.2-0.2-0.4-0.4-0.6-0.5
	c-0.2-0.2-0.4-0.3-0.5-0.5c-0.2-0.3-0.4-0.5-0.6-0.8c-0.1-0.1-0.2-0.2-0.3-0.3c-0.2-0.2-0.5-0.3-0.8-0.3c0,0-0.1,0-0.2,0
	c-0.3,0-0.5,0.1-0.7,0.4c-0.2,0.2-0.2,0.4-0.2,0.7c0,0.2,0.1,0.4,0.2,0.6C109.6,61.6,109.7,61.8,109.9,61.9z"/>
<path class="st0" d="M56.3,59.2c0.1,0.1,0.3,0.2,0.4,0.3c0.3,0.2,0.6,0.4,0.9,0.7c0.2,0.2,0.3,0.3,0.5,0.5c0.1,0.1,0.2,0.2,0.3,0.3
	c0.2,0.2,0.5,0.3,0.7,0.3c0.3,0,0.5-0.1,0.7-0.3s0.3-0.4,0.2-0.7c0-0.3-0.2-0.6-0.4-0.8c-0.1-0.1-0.2-0.2-0.3-0.3
	c-0.3-0.3-0.7-0.7-1-1c-0.2-0.3-0.5-0.6-0.7-0.8s-0.5-0.3-0.7-0.4c-0.4-0.1-0.9,0.1-1,0.5c-0.2,0.4-0.2,0.8,0,1.2
	C56,58.8,56.2,59,56.3,59.2z"/>
<path class="st0" d="M19,58.8c0.2,0.2,0.4,0.3,0.6,0.5c0.2,0.1,0.4,0.3,0.5,0.5c0.1,0.1,0.2,0.3,0.3,0.4c0.1,0.2,0.3,0.3,0.5,0.5
	c0.3,0.2,0.6,0.4,0.9,0.4c0.1,0,0.3,0,0.4-0.1c0.2-0.1,0.4-0.2,0.5-0.4c0.1-0.1,0.1-0.3,0-0.5c-0.1-0.3-0.2-0.6-0.4-0.8
	c-0.1-0.1-0.2-0.1-0.2-0.2c-0.1-0.1-0.3-0.2-0.4-0.3c-0.4-0.3-0.7-0.7-1-1.1c-0.1-0.2-0.2-0.3-0.4-0.5c-0.2-0.2-0.5-0.4-0.8-0.5
	s-0.5,0-0.8,0.1c-0.2,0.1-0.4,0.3-0.4,0.5c-0.1,0.3,0,0.6,0.1,0.9C18.6,58.4,18.8,58.6,19,58.8z"/>
<path class="st0" d="M69.5,65.7c0.1,0.2,0.2,0.4,0.3,0.6c0.2,0.2,0.4,0.4,0.7,0.6c0.3,0.2,0.6,0.5,0.8,0.8c0.2,0.2,0.3,0.4,0.5,0.6
	c0.2,0.3,0.5,0.4,0.9,0.4c0.3,0,0.5,0,0.8-0.2c0.2-0.1,0.3-0.2,0.3-0.4c0-0.1,0.1-0.3,0.1-0.4c0-0.3-0.1-0.5-0.2-0.8
	c-0.1-0.2-0.3-0.3-0.5-0.4s-0.3-0.2-0.5-0.3c-0.3-0.2-0.6-0.4-0.8-0.7c-0.1-0.1-0.2-0.2-0.3-0.3c-0.1-0.2-0.3-0.3-0.5-0.4
	s-0.4-0.2-0.7-0.2c-0.2,0-0.5,0.1-0.7,0.2C69.5,65.1,69.4,65.4,69.5,65.7z"/>
<path class="st0" d="M69.4,61.8c0.1,0.1,0.2,0.1,0.3,0.2c0.3,0,0.5,0,0.7-0.1c0.3-0.1,0.5-0.3,0.7-0.6c0.1-0.1,0.1-0.2,0.2-0.2
	c0.3-0.4,0.6-0.8,1-1.1c0.2-0.2,0.4-0.4,0.5-0.6c0.1-0.2,0.2-0.3,0.2-0.5c0.1-0.2,0-0.4,0-0.6c-0.1-0.4-0.4-0.6-0.7-0.6
	c-0.3-0.1-0.6,0-0.8,0.2c-0.1,0.1-0.2,0.2-0.2,0.3c-0.1,0.2-0.3,0.4-0.4,0.6c-0.2,0.3-0.4,0.6-0.8,0.8c-0.1,0.1-0.3,0.2-0.4,0.2
	c-0.1,0.1-0.2,0.1-0.4,0.2c-0.2,0.1-0.4,0.3-0.4,0.5c0,0.1,0,0.2-0.1,0.3C69,61.2,69.1,61.5,69.4,61.8z"/>
<path class="st0" d="M12.6,48.4c0.1,0.2,0.3,0.4,0.5,0.6c0.3,0.2,0.5,0.5,0.8,0.8c0.1,0.1,0.2,0.2,0.3,0.4c0.3,0.3,0.6,0.5,0.9,0.6
	c0.1,0,0.2,0.1,0.4,0.1h0.2c0.2-0.1,0.4-0.2,0.5-0.4s0.1-0.3,0.1-0.5s-0.1-0.3-0.2-0.5s-0.2-0.3-0.4-0.4c-0.2-0.2-0.5-0.4-0.7-0.6
	c-0.2-0.2-0.5-0.4-0.6-0.7c-0.1-0.1-0.1-0.2-0.2-0.2c-0.2-0.2-0.3-0.4-0.6-0.5c-0.1-0.1-0.3-0.1-0.4-0.2c-0.2,0-0.4,0-0.6,0.1
	c-0.4,0.3-0.5,0.7-0.4,1.2C12.4,48.2,12.5,48.3,12.6,48.4z"/>
<path class="st0" d="M62.8,63.6c0.2,0.1,0.4,0.1,0.7,0.1c0.3-0.1,0.6-0.2,0.9-0.4s0.4-0.5,0.5-0.9c0-0.4,0-0.7-0.1-1.1
	c-0.1-0.3-0.3-0.6-0.5-0.9c-0.2-0.2-0.5-0.3-0.8-0.3s-0.6,0.1-0.8,0.3s-0.3,0.4-0.4,0.6c-0.1,0.3-0.2,0.7-0.2,1s0,0.6,0.2,0.9
	C62.2,63.2,62.5,63.4,62.8,63.6z"/>
<path class="st0" d="M32.8,51.1c-0.2-0.2-0.5-0.3-0.8-0.3c-0.2,0-0.4,0-0.5,0.1c-0.2,0.1-0.2,0.2-0.3,0.4c0,0.1,0,0.1,0,0.2
	c0,0.3,0.1,0.6,0.3,0.8c0.1,0.1,0.2,0.2,0.3,0.3c0.1,0.1,0.3,0.3,0.4,0.4c0.4,0.4,0.7,0.7,1.1,1.1c0.2,0.2,0.4,0.3,0.6,0.5
	c0.1,0.1,0.3,0.1,0.5,0.1c0.3,0,0.6-0.1,0.8-0.3s0.3-0.4,0.2-0.7c0-0.2-0.1-0.3-0.2-0.4c-0.2-0.3-0.5-0.5-0.8-0.7
	c-0.1-0.1-0.3-0.2-0.4-0.3c-0.3-0.2-0.6-0.5-0.9-0.7C33,51.2,32.9,51.1,32.8,51.1z"/>
<path class="st0" d="M87.2,51.8c0.1,0,0.1,0.1,0.2,0.1c0.4,0.1,0.7,0.1,1.1-0.1c0.2-0.1,0.4-0.3,0.5-0.6c0.2-0.5,0.1-1-0.2-1.4
	c-0.1-0.1-0.2-0.2-0.3-0.3c-0.3-0.2-0.5-0.3-0.9-0.3c-0.1,0-0.2,0-0.3,0c-0.3,0.1-0.5,0.2-0.7,0.5c-0.2,0.4-0.3,0.7-0.2,1.2
	C86.5,51.3,86.7,51.6,87.2,51.8z"/>
<path class="st0" d="M105.4,59.6c0.1,0.1,0.2,0.2,0.4,0.3c0.2,0.1,0.4,0.1,0.6,0.1c0.1,0,0.2,0,0.3-0.1c0.2-0.1,0.4-0.1,0.6-0.3
	s0.3-0.5,0.3-0.8c0-0.2-0.1-0.5-0.2-0.7c-0.1-0.3-0.4-0.5-0.7-0.6c-0.2-0.1-0.4-0.1-0.6-0.1c0,0-0.1,0-0.2,0c-0.3,0-0.6,0.2-0.7,0.4
	c-0.2,0.3-0.2,0.5-0.2,0.8C105,59,105.2,59.3,105.4,59.6z"/>
<path class="st0" d="M64.9,57.7c0.2,0.1,0.5,0.3,0.8,0.2c0.5,0,0.9-0.3,1-0.8c0.1-0.3,0.1-0.6,0-0.8c-0.1-0.4-0.4-0.6-0.7-0.8
	c-0.2-0.1-0.4-0.2-0.6-0.2c-0.3,0-0.6,0.1-0.9,0.3c-0.2,0.2-0.3,0.4-0.4,0.6c-0.1,0.3,0,0.5,0.1,0.8C64.4,57.2,64.6,57.5,64.9,57.7z
	"/>
<path class="st0" d="M97.1,58.2c0.4,0.2,0.7,0.2,1.1,0.1c0.1,0,0.3-0.1,0.4-0.2c0.2-0.2,0.3-0.4,0.4-0.6c0.1-0.2,0.1-0.4,0-0.6
	c-0.1-0.4-0.3-0.7-0.6-0.9c-0.2-0.1-0.4-0.2-0.7-0.1c-0.2,0-0.5,0.1-0.7,0.2c-0.2,0.1-0.3,0.2-0.4,0.4s-0.1,0.4-0.1,0.7
	c0,0.1,0,0.2,0,0.3C96.6,57.8,96.8,58.1,97.1,58.2z"/>
<path class="st0" d="M18,53.9c0.1,0.1,0.2,0.3,0.4,0.3c0.3,0.2,0.7,0.2,1.1,0.1c0.3-0.1,0.4-0.3,0.5-0.5c0.2-0.4,0.2-0.8,0-1.3
	c-0.1-0.3-0.3-0.5-0.6-0.6c-0.1,0-0.2,0-0.3,0c-0.2,0-0.4,0-0.6,0.1s-0.4,0.2-0.5,0.3c-0.2,0.3-0.3,0.6-0.2,0.9
	C17.8,53.5,17.9,53.7,18,53.9z"/>
<path class="st0" d="M102.4,69.2c0.2,0.2,0.4,0.2,0.7,0.3c0.2,0,0.3,0,0.5,0c0.4-0.1,0.6-0.3,0.7-0.6c0.1-0.3,0.1-0.6-0.1-1
	s-0.6-0.7-1-0.8c-0.2-0.1-0.4-0.1-0.6,0s-0.4,0.2-0.5,0.4c-0.1,0.2-0.2,0.4-0.1,0.6C101.9,68.5,102,68.9,102.4,69.2z"/>
<path class="st0" d="M27,57.9c0-0.1-0.1-0.3-0.1-0.4c-0.2-0.4-0.6-0.7-1-0.8c-0.2,0-0.4-0.1-0.6,0s-0.4,0.2-0.5,0.4
	c-0.1,0.1-0.1,0.3-0.1,0.4c0,0.3,0.1,0.6,0.2,0.8s0.3,0.4,0.5,0.5c0.3,0.1,0.6,0.2,0.9,0.2c0.2,0,0.4-0.1,0.5-0.2
	c0.2-0.2,0.3-0.4,0.3-0.6C27,58.2,27,58,27,57.9z"/>
<path class="st0" d="M75.4,61.3c-0.3,0.1-0.4,0.2-0.6,0.4c-0.2,0.3-0.2,0.6-0.1,1s0.4,0.7,0.8,0.8c0.1,0,0.1,0,0.2,0s0.2,0,0.3,0
	l0,0c0.1,0,0.2,0,0.3,0c0.2,0,0.4-0.1,0.6-0.3c0.1-0.1,0.2-0.2,0.2-0.3c0.1-0.4,0.1-0.7-0.1-1C76.6,61.4,75.9,61.1,75.4,61.3z"/>
<path class="st0" d="M141.7,52.7h0.1c0.5,0,0.8-0.3,0.9-0.8c0-0.1,0-0.1,0-0.2c0-0.2-0.1-0.4-0.1-0.5c-0.1-0.2-0.3-0.4-0.5-0.6
	c-0.2-0.1-0.3-0.1-0.5-0.2c-0.2-0.1-0.5,0-0.7,0.1c-0.3,0.1-0.5,0.3-0.5,0.6c-0.1,0.3,0,0.6,0.2,0.9
	C140.7,52.4,141.2,52.7,141.7,52.7z"/>
<path class="st0" d="M113.6,58.8c0.1,0.4,0.3,0.7,0.6,0.9c0.2,0.1,0.4,0.2,0.7,0.2c0.1,0,0.1,0,0.1,0c0.5,0,0.9-0.4,0.9-0.8
	c0.1-0.6-0.3-1.2-0.8-1.4c-0.3-0.1-0.5-0.1-0.8-0.1c-0.2,0-0.3,0.1-0.5,0.2C113.7,58.1,113.6,58.4,113.6,58.8z"/>
<path class="st0" d="M21.5,63.3C21.6,63.3,21.5,63.3,21.5,63.3c-0.5,0-0.8,0.2-1,0.6c0,0.1,0,0.1-0.1,0.2c-0.1,0.2-0.1,0.5,0,0.7
	c0.2,0.4,0.4,0.7,0.9,0.7c0.3,0,0.5,0,0.8-0.1c0.2,0,0.4-0.2,0.5-0.3c0.2-0.3,0.3-0.6,0.2-0.9C22.7,63.7,22.2,63.3,21.5,63.3z"/>
<path class="st0" d="M37.5,55.4c-0.1,0.4,0,0.7,0.2,1C38,56.8,38.5,57,39,57c0.1,0,0.1,0,0.2,0c0.1,0,0.2,0,0.3-0.1
	c0.2-0.1,0.3-0.3,0.3-0.5c0-0.1,0-0.2,0-0.4s0-0.3-0.1-0.5c-0.2-0.4-0.4-0.7-0.8-0.8c-0.3-0.1-0.6-0.2-0.9,0
	C37.7,55,37.5,55.1,37.5,55.4z"/>
<path class="st0" d="M64.3,67.2c0-0.2-0.1-0.4-0.3-0.5c-0.3-0.3-0.6-0.4-1-0.4h-0.1c-0.4,0-0.7,0.2-0.9,0.6c0,0.2,0,0.4,0,0.7
	c0.1,0.4,0.3,0.6,0.6,0.8c0.2,0.1,0.5,0.2,0.8,0.1c0.4,0,0.6-0.2,0.8-0.5C64.3,67.7,64.4,67.4,64.3,67.2z"/>
<path class="st0" d="M143.7,48.5c0.3,0,0.5-0.1,0.7-0.3c0.1-0.1,0.2-0.3,0.2-0.5s0-0.4-0.1-0.6c-0.1-0.2-0.2-0.4-0.4-0.6
	c-0.3-0.2-0.6-0.3-0.9-0.4h-0.1c-0.2,0-0.4,0.1-0.5,0.2c-0.2,0.2-0.3,0.4-0.3,0.7c0,0.4,0.1,0.8,0.4,1.1c0.1,0.1,0.3,0.2,0.5,0.3
	C143.4,48.5,143.6,48.5,143.7,48.5z"/>
<path class="st0" d="M27.4,47.2c0.2,0.1,0.3,0.1,0.5,0.1c0.3,0,0.6-0.1,0.8-0.2c0.4-0.2,0.5-0.6,0.4-1c-0.1-0.2-0.1-0.3-0.3-0.5
	c-0.3-0.3-0.6-0.5-1.1-0.4c-0.2,0-0.3,0.1-0.4,0.1c-0.3,0.1-0.4,0.3-0.5,0.6c-0.1,0.2-0.1,0.5,0,0.7C26.9,46.9,27.1,47.1,27.4,47.2z
	"/>
<path class="st0" d="M37.4,50.3c0.2,0.2,0.5,0.3,0.8,0.2c0.1,0,0.3,0,0.4-0.1c0.3-0.1,0.5-0.4,0.6-0.7c0.1-0.5-0.1-0.9-0.4-1.2
	c-0.2-0.2-0.5-0.3-0.8-0.3s-0.6,0.1-0.9,0.4c-0.2,0.3-0.3,0.5-0.2,0.9C37,49.8,37.2,50.1,37.4,50.3z"/>
<path class="st0" d="M7.2,51.3c0.3,0.4,0.7,0.6,1.1,0.6c0.2,0,0.5-0.1,0.6-0.2c0.2-0.1,0.3-0.3,0.4-0.6c0-0.1,0-0.3,0-0.4
	c0-0.3-0.2-0.6-0.4-0.7c-0.4-0.3-0.8-0.4-1.2-0.3c-0.3,0.1-0.5,0.2-0.6,0.5C6.9,50.6,7,51,7.2,51.3z"/>
<path class="st0" d="M79.4,50.2c0.1,0.2,0.3,0.4,0.6,0.5c0.2,0.1,0.4,0.1,0.6,0.1s0.4-0.1,0.5-0.3c0.4-0.4,0.4-0.9,0.2-1.5
	c-0.1-0.3-0.4-0.5-0.7-0.5c-0.1,0-0.2,0-0.3,0c-0.1,0-0.2,0-0.3,0c-0.2,0-0.3,0.1-0.5,0.2c-0.3,0.2-0.4,0.7-0.4,1
	C79.2,49.9,79.3,50.1,79.4,50.2z"/>
<path class="st0" d="M132.3,59.3c0.4,0.1,0.7,0,0.9-0.3s0.3-0.6,0.3-0.9c0-0.1,0-0.1,0-0.2c-0.1-0.3-0.3-0.5-0.5-0.6
	c-0.1-0.1-0.3-0.1-0.5-0.2c-0.3-0.1-0.8,0.1-1,0.4c-0.1,0.2-0.2,0.4-0.2,0.6c0,0.3,0,0.5,0.1,0.7C131.7,59,132,59.2,132.3,59.3z"/>
<path class="st0" d="M154.5,47.3c0-0.1,0-0.2,0-0.3c-0.1-0.2-0.1-0.4-0.3-0.6c-0.2-0.2-0.4-0.4-0.7-0.5s-0.6,0-0.9,0.3
	c-0.5,0.6-0.4,1.3,0,1.7c0.2,0.2,0.4,0.3,0.8,0.3c0.3,0,0.6-0.1,0.8-0.3C154.4,47.8,154.5,47.6,154.5,47.3z"/>
<path class="st0" d="M44.2,56.7c0.2,0.1,0.3,0.1,0.5,0.1s0.3-0.1,0.4-0.2c0.1-0.1,0.2-0.2,0.2-0.3c0.2-0.4,0.2-0.7,0-1.1
	c-0.1-0.3-0.4-0.5-0.7-0.6c-0.1,0-0.3,0-0.4,0c-0.3,0-0.5,0.1-0.7,0.2c-0.1,0-0.1,0.1-0.1,0.2c-0.2,0.3-0.2,0.7-0.1,1
	C43.6,56.3,43.9,56.5,44.2,56.7z"/>
<path class="st0" d="M6,43.9c0,0.1,0.1,0.3,0.2,0.4c0.2,0.2,0.3,0.3,0.6,0.4c0.3,0.1,0.6,0,0.9-0.1c0.2-0.1,0.4-0.2,0.5-0.4
	s0.1-0.5,0.1-0.8c0-0.2-0.1-0.3-0.2-0.5c-0.3-0.3-0.7-0.4-1.1-0.4c-0.2,0-0.4,0.1-0.5,0.3C6,43.1,6,43.4,6,43.7
	C6,43.8,6,43.8,6,43.9z"/>
<path class="st0" d="M72.7,52.9c0.3,0.2,0.6,0.2,0.9,0.1c0.2,0,0.3-0.1,0.5-0.3c0.2-0.3,0.3-0.6,0.3-0.9c0-0.5-0.4-1-1-1
	c-0.3,0-0.6,0.1-0.8,0.3c-0.4,0.4-0.5,0.8-0.3,1.4C72.4,52.7,72.5,52.8,72.7,52.9z"/>
<path class="st0" d="M118.3,67.9c-0.3,0.1-0.5,0.3-0.6,0.6c0,0.1-0.1,0.3-0.1,0.4s0,0.1,0,0.2c0,0.3,0.2,0.5,0.4,0.7
	c0.2,0.1,0.4,0.2,0.6,0.3c0.3,0.1,0.5,0,0.8-0.1c0.2-0.1,0.4-0.3,0.4-0.5s0-0.4,0-0.6C119.7,68.1,119.1,67.7,118.3,67.9z"/>
<path class="st0" d="M115.1,4.2c0,0,0.1,0,0.2,0c0.3,0,0.6-0.2,0.7-0.5c0.2-0.6,0.1-1.2-0.2-1.7c-0.1-0.1-0.2-0.2-0.3-0.2
	c-0.3-0.2-0.6-0.2-1-0.1c-0.6,0.2-0.8,0.7-0.9,1.1c0,0.4,0.1,0.7,0.4,0.9C114.3,4.1,114.6,4.2,115.1,4.2z"/>
<path class="st0" d="M124.3,0.9c0,0.3,0,0.5,0.1,0.8c0.2,0.4,0.4,0.6,0.8,0.7c0.2,0,0.4,0,0.6,0c0.4-0.1,0.7-0.3,0.8-0.7
	c0.1-0.2,0.1-0.5,0-0.7c-0.1-0.4-0.3-0.6-0.6-0.8c-0.1-0.1-0.3,0-0.4-0.1c-0.1,0-0.1,0-0.2,0c-0.3,0-0.5,0.1-0.7,0.3
	C124.5,0.5,124.4,0.7,124.3,0.9z"/>
<path class="st0" d="M125,5.3c-0.2-0.1-0.4-0.2-0.7-0.1c-0.3,0.1-0.5,0.3-0.7,0.6c-0.1,0.2-0.1,0.3-0.1,0.5s0,0.4,0.1,0.6
	c0.2,0.3,0.5,0.6,0.9,0.6c0.1,0,0.2,0,0.2,0c0.2,0,0.4-0.1,0.6-0.2s0.3-0.3,0.3-0.4C125.8,6.2,125.5,5.6,125,5.3z"/>
<path class="st0" d="M56,2c0.1,0.1,0.2,0.2,0.3,0.2c0.5,0.3,0.9,0.6,1.2,1.1c0.2,0.2,0.3,0.3,0.5,0.5c0.2,0.2,0.5,0.4,0.7,0.6
	c0.3,0.2,0.5,0.5,0.7,0.7s0.3,0.5,0.5,0.7C60,5.9,60.1,6,60.2,6.1c0.1,0.1,0.3,0.2,0.4,0.3c0.2,0.1,0.5,0.1,0.8,0.1
	c0.2,0,0.4-0.1,0.5-0.3c0.2-0.2,0.3-0.5,0.2-0.8c0-0.3-0.2-0.5-0.4-0.7S61.3,4.3,61,4.1c-0.4-0.3-0.8-0.7-1.1-1.2c0,0,0,0,0-0.1
	c-0.2-0.2-0.4-0.4-0.6-0.6c-0.1,0-0.1-0.1-0.2-0.1c-0.3-0.2-0.6-0.5-0.9-0.8c-0.2-0.2-0.4-0.4-0.5-0.7c-0.1-0.1-0.2-0.3-0.3-0.4
	C57.2,0.1,56.9,0,56.6,0c-0.2,0-0.5,0.1-0.7,0.2c-0.1,0-0.1,0.1-0.2,0.2c-0.2,0.2-0.3,0.5-0.2,0.8C55.5,1.5,55.7,1.8,56,2z"/>
<path class="st0" d="M53.9,6.6c0,0,0.1,0,0.2,0c0.3,0,0.6-0.2,0.7-0.5C55,5.5,54.9,5,54.5,4.5c-0.1-0.1-0.2-0.2-0.3-0.2
	c-0.3-0.2-0.6-0.2-1-0.1c-0.6,0.2-0.8,0.7-0.9,1.1c0,0.4,0.1,0.7,0.4,0.9C53.1,6.5,53.4,6.6,53.9,6.6z"/>
<path class="st0" d="M48.6,3.1c0.2,0.2,0.4,0.2,0.7,0.3c0.2,0,0.3,0,0.5,0c0.4-0.1,0.6-0.3,0.7-0.6c0.1-0.3,0.1-0.6-0.1-1
	c-0.2-0.4-0.6-0.7-1-0.8c-0.2-0.1-0.4-0.1-0.6,0c-0.2,0.1-0.4,0.2-0.5,0.4S48.1,1.8,48.2,2C48.1,2.4,48.3,2.8,48.6,3.1z"/>
<path class="st0" d="M43.3,3.2c0.3,0.2,0.6,0.3,0.9,0.3c0.2,0,0.4,0,0.5-0.1C45,3.2,45.2,3,45.2,2.6c0,0,0,0,0-0.1
	c0-0.3-0.2-0.6-0.4-0.8S44.3,1.4,44,1.4c-0.3-0.1-0.5,0-0.8,0.1C43,1.6,42.9,1.7,42.8,2c0,0.2,0,0.4,0,0.6
	C42.9,2.9,43.1,3.1,43.3,3.2z"/>
<path class="st0" d="M67.9,6.9c-0.2,0.1-0.4,0.2-0.6,0.3c-0.2,0.1-0.3,0.3-0.4,0.5C66.8,8,66.8,8.2,67,8.5c0.1,0.2,0.2,0.3,0.4,0.4
	c0.2,0.1,0.5,0.2,0.8,0.2c0.2,0,0.4-0.1,0.6-0.1c0.2-0.1,0.3-0.2,0.4-0.3c0.2-0.2,0.3-0.5,0.2-0.8c-0.1-0.3-0.2-0.5-0.4-0.8
	C68.6,6.9,68.3,6.8,67.9,6.9z"/>
<path class="st0" d="M73.1,4.5c-0.2-0.1-0.4-0.2-0.7-0.1c-0.3,0.1-0.5,0.3-0.7,0.6c-0.1,0.2-0.1,0.3-0.1,0.5s0,0.4,0.1,0.6
	c0.2,0.3,0.5,0.6,0.9,0.6c0.1,0,0.2,0,0.2,0c0.2,0,0.4-0.1,0.6-0.2s0.3-0.3,0.3-0.4C74,5.4,73.7,4.8,73.1,4.5z"/>
<path class="st0" d="M65.2,2.7c-0.3,0.1-0.5,0.3-0.6,0.6c0,0.1-0.1,0.3-0.1,0.4c0,0.1,0,0.1,0,0.2c0,0.3,0.2,0.5,0.4,0.7
	c0.2,0.1,0.4,0.2,0.6,0.3c0.3,0.1,0.5,0,0.8-0.1c0.2-0.1,0.4-0.3,0.4-0.5s0-0.4,0-0.6C66.5,3,65.9,2.5,65.2,2.7z"/>
<path class="st0" d="M130.1,67.6c-0.3,0.1-0.5,0.3-0.6,0.6c0,0.1-0.1,0.3-0.1,0.4s0,0.1,0,0.2c0,0.3,0.2,0.5,0.4,0.7
	c0.2,0.1,0.4,0.2,0.6,0.3c0.3,0.1,0.5,0,0.8-0.1c0.2-0.1,0.4-0.3,0.4-0.5s0-0.4,0-0.6C131.4,67.9,130.8,67.4,130.1,67.6z"/>
<path class="st0" d="M116.7,64.1c-0.3,0-0.6,0.1-0.9,0.4c-0.1,0.1-0.2,0.3-0.3,0.5c-0.1,0.5,0.1,1,0.6,1.3c0.3,0.2,0.7,0.2,1-0.1
	c0.3-0.3,0.4-0.6,0.4-1c0-0.3-0.1-0.5-0.2-0.7C117.2,64.2,117,64.1,116.7,64.1z"/>
<path class="st0" d="M142.4,57.8c0,0.4,0.1,0.7,0.3,0.9c0,0.1,0.1,0.1,0.2,0.1c0.3,0.2,0.5,0.3,0.9,0.3c0.1,0,0.2,0,0.3-0.1
	c0.3-0.1,0.5-0.4,0.5-0.7c0-0.2,0-0.3-0.1-0.5c-0.1-0.3-0.3-0.6-0.5-0.7c-0.4-0.3-0.8-0.3-1.2,0c-0.1,0-0.1,0.1-0.2,0.2
	C142.4,57.5,142.4,57.7,142.4,57.8z"/>
<path class="st0" d="M75.6,57.1c0.2,0.1,0.3,0.1,0.5,0.1s0.4,0,0.6-0.2c0.1-0.1,0.3-0.2,0.3-0.4c0.1-0.2,0.1-0.5,0.1-0.7
	c-0.1-0.4-0.3-0.7-0.7-0.8C76.2,55,76,55,75.7,55c-0.4,0.1-0.6,0.3-0.7,0.7c0,0.2,0,0.4,0,0.6C75.1,56.8,75.3,57,75.6,57.1z"/>
<path class="st0" d="M125.1,58.8c0.1,0,0.2,0,0.3,0c0.4,0,0.8-0.3,0.9-0.8c0-0.2,0-0.3,0-0.5c-0.1-0.4-0.3-0.7-0.7-0.8
	c-0.1,0-0.2,0-0.3-0.1c-0.4,0-0.7,0.2-0.9,0.5c-0.1,0.2-0.2,0.4-0.2,0.6c0,0.3,0.1,0.6,0.4,0.9C124.9,58.8,125,58.8,125.1,58.8z"/>
<path class="st0" d="M147.2,50.5c0.3,0.2,0.6,0.3,0.9,0.2c0.4-0.1,0.7-0.6,0.6-1.1c-0.1-0.3-0.2-0.6-0.4-0.8s-0.4-0.2-0.6-0.2
	c-0.3,0-0.7,0.2-0.9,0.5c-0.1,0.1-0.1,0.3-0.1,0.4C146.7,50,146.9,50.3,147.2,50.5z"/>
<path class="st0" d="M51.3,66.5c-0.3-0.3-0.9-0.4-1.2,0c-0.2,0.2-0.4,0.5-0.4,0.9c0,0.2,0,0.4,0.2,0.6c0.1,0.2,0.3,0.3,0.5,0.4
	s0.4,0.1,0.6,0c0.3-0.1,0.5-0.3,0.6-0.5C51.8,67.3,51.7,66.8,51.3,66.5z"/>
<path class="st0" d="M135.5,49.2c0.4,0.2,0.7,0.2,1,0c0.2-0.1,0.2-0.3,0.3-0.5c0-0.1,0.1-0.3,0-0.4c-0.1-0.5-0.4-0.7-0.8-0.9
	c-0.1,0-0.3,0-0.4,0c-0.4,0.1-0.6,0.5-0.6,1c0,0.3,0.1,0.5,0.4,0.8C135.4,49.1,135.4,49.1,135.5,49.2z"/>
<path class="st0" d="M154.6,56.4c-0.2-0.1-0.3-0.2-0.5-0.2c-0.3-0.1-0.5,0-0.7,0.2s-0.3,0.4-0.3,0.7c0,0,0,0.1,0,0.2
	c0,0.1,0,0.1,0.1,0.2c0.2,0.4,0.6,0.7,1,0.6c0.1,0,0.2-0.1,0.4-0.1c0.2-0.1,0.3-0.3,0.4-0.5C155.1,57.1,154.9,56.7,154.6,56.4z"/>
<path class="st0" d="M43.8,60.2L43.8,60.2c-0.4,0-0.7,0.2-0.9,0.5c-0.1,0.2-0.2,0.4-0.1,0.6c0.1,0.3,0.3,0.6,0.5,0.8
	c0.1,0.1,0.2,0.2,0.3,0.3l0.1,0.1c0.1,0,0.1,0.1,0.2,0.1l0,0c0.1,0.1,0.2,0.2,0.3,0.3c0.3,0.3,0.5,0.7,0.6,1.2
	c0.1,0.4,0.1,0.9,0,1.5s-0.4,1.1-0.9,1.4c0.1,0,0,0-0.1,0.1l0,0c-0.1,0-0.1,0.1-0.2,0.1l0,0c-0.1,0.1-0.2,0.1-0.4,0.2
	c-0.3,0.2-0.5,0.5-0.6,1c0,0.1,0,0.3,0,0.4c0.1,0.4,0.4,0.7,0.8,0.8c0.2,0.1,0.4,0.1,0.7,0.1c0.4,0,0.8-0.2,1-0.6
	c0.1-0.2,0.2-0.4,0.3-0.7c0-0.1,0.1-0.2,0.1-0.3l0,0c0-0.1,0.1-0.1,0.1-0.2c0.2-0.4,0.4-0.8,0.9-1c0.2-0.1,0.4-0.2,0.6-0.3
	c0.6-0.4,0.9-0.9,1-1.5c0-0.1,0-0.2,0-0.3v-0.1l0,0v-0.1c0-0.1,0-0.1,0-0.2c0-0.8-0.4-1.4-1-1.7L47,62.6c-0.1-0.1-0.2-0.1-0.3-0.2
	c-0.5-0.3-0.9-0.6-1.2-1.2c-0.1-0.2-0.2-0.3-0.3-0.4C44.8,60.4,44.4,60.2,43.8,60.2z"/>
<path class="st0" d="M137.6,52.8c-0.6-0.1-1.1-0.3-1.5-0.7c-0.1-0.1-0.3-0.2-0.5-0.4c-0.3-0.2-0.6-0.3-0.9-0.4c-0.2,0-0.4,0-0.6,0
	H134c-0.4,0.2-0.6,0.6-0.4,1c0,0.1,0.1,0.2,0.2,0.3c0.1,0.1,0.2,0.3,0.4,0.4c0.3,0.2,0.6,0.4,0.9,0.5c0.2,0.1,0.5,0.2,0.7,0.3
	c0.4,0.2,0.8,0.5,1,1c0.1,0.2,0.2,0.4,0.3,0.6c0,0.1,0.1,0.2,0.1,0.3c0.2,0.4,0.4,0.8,0.8,1.1c0.3,0.3,0.6,0.4,1,0.3
	c0.7,0,1.1-0.5,1.2-1.1c0-0.2,0-0.3,0-0.5c0-0.4-0.1-0.7-0.2-1c-0.1-0.3-0.2-0.5-0.4-0.9c-0.2-0.3-0.5-0.5-0.8-0.7
	C138.3,53,137.9,52.9,137.6,52.8z"/>
<path class="st0" d="M41,42.9h-6.7l-2.7-5.8H20.4l-2.7,5.8h-6.5l14.5-31.2h0.6L41,42.9z M22.8,31.4h6.4L26,24.2L22.8,31.4z"/>
<path class="st0" d="M55,30.3c2.4,0,4.4,0.9,5.5,1.9V21.7h6.2v30.5h-6.1v-1.5c-1.1,1.1-3.2,2-5.6,2c-5.9,0-10.7-4.3-10.7-11.1
	C44.4,34.8,49.2,30.3,55,30.3z M55.6,36c-2.8,0-5,2.3-5,5.6s2.1,5.6,5,5.6c2.8,0,5-2.3,5-5.6C60.6,38.2,58.5,36,55.6,36z"/>
<path class="st0" d="M72.3,37c0-3.9,2.3-6.2,7.2-6.8l4.6-0.6v-0.7c0-1.4-1-2.1-2.4-2.1c-1.1,0-2.3,0.5-2.4,2H73
	c0.3-4.7,3.9-7.7,8.8-7.7c4.8,0,8.5,2.4,8.5,7.2V36c0,1,0.2,1.7,1.4,1.7h0.7v5.2c0,0-1.5,0.1-2.5,0.1c-2.3,0-3.6-0.4-4.2-2
	c-1.6,1.8-3.7,2.4-6.1,2.4C75.1,43.4,72.3,40.3,72.3,37z M80.5,38c2.3,0,3.6-1.3,3.6-3.8v-0.3l-3.7,0.6c-1.3,0.2-2.1,0.7-2.1,1.8
	C78.3,37.3,79.3,38,80.5,38z"/>
<path class="st0" d="M130.3,52.2h-6.2V36.6h-7v15.6H111V36.6h-7v15.6h-6.2V30.9h32.5V52.2z"/>
<path class="st0" d="M140.1,12c2,0,3.6,1.6,3.6,3.6s-1.6,3.6-3.6,3.6s-3.6-1.6-3.6-3.6C136.6,13.6,138.1,12,140.1,12z M137,21.6h6.2
	v21.3H137V21.6z"/>
<path class="st0" d="M141.8,65.4c0.1,0.1,0.2,0.2,0.3,0.2c0.5,0.3,0.9,0.6,1.2,1.1c0.2,0.2,0.3,0.3,0.5,0.5s0.5,0.4,0.7,0.6
	c0.3,0.2,0.5,0.5,0.7,0.7s0.3,0.5,0.5,0.7c0.1,0.1,0.2,0.2,0.3,0.3c0.1,0.1,0.3,0.2,0.4,0.3c0.2,0.1,0.5,0.1,0.8,0.1
	c0.2,0,0.4-0.1,0.5-0.3c0.2-0.2,0.3-0.5,0.2-0.8c0-0.3-0.2-0.5-0.4-0.7s-0.4-0.4-0.7-0.6c-0.4-0.3-0.8-0.7-1.1-1.2c0,0,0,0,0-0.1
	c-0.2-0.2-0.4-0.4-0.6-0.6c-0.1,0-0.1-0.1-0.2-0.1c-0.3-0.2-0.6-0.5-0.9-0.8c-0.2-0.2-0.4-0.4-0.5-0.7c-0.1-0.1-0.2-0.3-0.3-0.4
	c-0.2-0.2-0.5-0.4-0.8-0.3c-0.2,0-0.5,0.1-0.7,0.2c-0.1,0-0.1,0.1-0.2,0.2c-0.2,0.2-0.3,0.5-0.2,0.8
	C141.4,64.9,141.6,65.2,141.8,65.4z"/>
<g>
	<path class="st1" d="M39.5,71.9v-0.5h1.4v5.4l0.6,0.1v0.5h-2v-0.5l0.6-0.1V72L39.5,71.9z"/>
	<path class="st1" d="M46.9,77.4c0-0.1,0-0.2-0.1-0.3s0-0.2,0-0.3c-0.1,0.2-0.3,0.3-0.5,0.5c-0.2,0.1-0.4,0.2-0.7,0.2
		c-0.4,0-0.8-0.1-1-0.3c-0.2-0.2-0.3-0.5-0.3-0.9c0-0.4,0.2-0.7,0.5-0.9c0.3-0.2,0.8-0.3,1.3-0.3h0.8v-0.5c0-0.2-0.1-0.4-0.2-0.6
		c-0.2-0.1-0.4-0.2-0.6-0.2c-0.2,0-0.4,0-0.5,0.1c-0.1,0-0.3,0.1-0.3,0.2L45,74.5h-0.6v-0.8c0.2-0.2,0.4-0.3,0.7-0.4
		c0.3-0.1,0.6-0.1,0.9-0.1c0.5,0,0.8,0.1,1.1,0.4c0.3,0.2,0.4,0.6,0.4,1v2c0,0.1,0,0.1,0,0.2c0,0.1,0,0.1,0,0.2l0.3,0v0.5H46.9z
		 M45.7,76.9c0.2,0,0.5-0.1,0.7-0.2c0.2-0.1,0.4-0.3,0.4-0.4v-0.7H46c-0.3,0-0.6,0.1-0.7,0.2c-0.2,0.1-0.3,0.3-0.3,0.5
		c0,0.2,0.1,0.3,0.2,0.4C45.3,76.8,45.5,76.9,45.7,76.9z"/>
	<path class="st1" d="M54.8,73.8v-0.6h0.6v-0.5c0-0.4,0.1-0.8,0.3-1c0.2-0.2,0.6-0.4,1-0.4c0.1,0,0.2,0,0.3,0c0.1,0,0.2,0,0.3,0.1
		L57.2,72c0,0-0.1,0-0.2,0c-0.1,0-0.1,0-0.2,0c-0.2,0-0.4,0.1-0.5,0.2s-0.2,0.3-0.2,0.6v0.5H57v0.6h-0.9v3l0.6,0.1v0.5h-2v-0.5
		l0.6-0.1v-3H54.8z"/>
	<path class="st1" d="M59.8,75.3c0-0.6,0.2-1.1,0.5-1.5c0.3-0.4,0.8-0.6,1.3-0.6c0.6,0,1,0.2,1.4,0.6c0.3,0.4,0.5,0.9,0.5,1.5v0.1
		c0,0.6-0.2,1.1-0.5,1.5c-0.3,0.4-0.8,0.6-1.3,0.6c-0.6,0-1-0.2-1.4-0.6S59.8,76,59.8,75.3L59.8,75.3z M60.6,75.4
		c0,0.4,0.1,0.8,0.3,1.1s0.5,0.4,0.8,0.4c0.4,0,0.6-0.1,0.8-0.4c0.2-0.3,0.3-0.6,0.3-1.1v-0.1c0-0.4-0.1-0.8-0.3-1.1
		c-0.2-0.3-0.5-0.4-0.8-0.4c-0.4,0-0.6,0.1-0.8,0.4C60.7,74.5,60.6,74.9,60.6,75.4L60.6,75.4z"/>
	<path class="st1" d="M66.4,73.8v-0.5h1.3l0.1,0.6c0.1-0.2,0.3-0.4,0.4-0.5c0.2-0.1,0.4-0.2,0.6-0.2c0.1,0,0.1,0,0.2,0s0.1,0,0.1,0
		L69,73.9l-0.4,0c-0.2,0-0.4,0-0.5,0.1c-0.1,0.1-0.2,0.2-0.3,0.4v2.4l0.6,0.1v0.5h-2v-0.5l0.6-0.1v-3L66.4,73.8z"/>
	<path class="st1" d="M73.6,76.9c0.2,0,0.5-0.1,0.7-0.2c0.2-0.2,0.3-0.3,0.3-0.6h0.7l0,0c0,0.4-0.1,0.7-0.5,0.9
		c-0.3,0.3-0.7,0.4-1.2,0.4c-0.6,0-1.1-0.2-1.4-0.6c-0.3-0.4-0.5-0.9-0.5-1.5v-0.2c0-0.6,0.2-1.1,0.5-1.5c0.3-0.4,0.8-0.6,1.4-0.6
		c0.3,0,0.6,0.1,0.9,0.2c0.3,0.1,0.5,0.3,0.7,0.5l0,0.9h-0.6l-0.2-0.6c-0.1-0.1-0.2-0.2-0.3-0.2c-0.1-0.1-0.3-0.1-0.5-0.1
		c-0.4,0-0.7,0.1-0.8,0.4c-0.2,0.3-0.3,0.6-0.3,1v0.2c0,0.4,0.1,0.8,0.3,1.1S73.2,76.9,73.6,76.9z"/>
	<path class="st1" d="M80,77.5c-0.6,0-1-0.2-1.4-0.6c-0.3-0.4-0.5-0.9-0.5-1.5v-0.2c0-0.6,0.2-1.1,0.5-1.5c0.4-0.4,0.8-0.6,1.2-0.6
		c0.6,0,1,0.2,1.3,0.5c0.3,0.3,0.4,0.8,0.4,1.3v0.5h-2.7l0,0c0,0.4,0.1,0.7,0.3,1s0.5,0.4,0.8,0.4c0.3,0,0.5,0,0.7-0.1
		c0.2-0.1,0.4-0.2,0.5-0.3l0.3,0.5c-0.1,0.1-0.3,0.3-0.6,0.4C80.7,77.4,80.4,77.5,80,77.5z M79.9,73.8c-0.3,0-0.5,0.1-0.6,0.3
		c-0.2,0.2-0.3,0.5-0.3,0.8l0,0h1.9v-0.1c0-0.3-0.1-0.5-0.2-0.7C80.5,73.9,80.2,73.8,79.9,73.8z"/>
	<path class="st1" d="M91.5,76.9c-0.1,0.2-0.3,0.3-0.5,0.4c-0.2,0.1-0.4,0.1-0.7,0.1c-0.5,0-0.9-0.2-1.2-0.5s-0.4-0.8-0.4-1.4v-0.1
		c0-0.7,0.1-1.2,0.4-1.6s0.7-0.6,1.2-0.6c0.2,0,0.5,0,0.6,0.1c0.2,0.1,0.3,0.2,0.5,0.4V72l-0.6-0.1v-0.5h0.6h0.8v5.4l0.6,0.1v0.5
		h-1.3L91.5,76.9z M89.4,75.5c0,0.4,0.1,0.7,0.3,1c0.2,0.3,0.4,0.4,0.8,0.4c0.2,0,0.4-0.1,0.6-0.2c0.2-0.1,0.3-0.2,0.4-0.4v-1.9
		c-0.1-0.2-0.2-0.3-0.4-0.4c-0.2-0.1-0.3-0.2-0.6-0.2c-0.4,0-0.6,0.1-0.8,0.4S89.4,74.9,89.4,75.5L89.4,75.5z"/>
	<path class="st1" d="M97.5,77.5c-0.6,0-1-0.2-1.4-0.6c-0.3-0.4-0.5-0.9-0.5-1.5v-0.2c0-0.6,0.2-1.1,0.5-1.5
		c0.3-0.4,0.8-0.6,1.2-0.6c0.6,0,1,0.2,1.3,0.5C98.9,74,99,74.5,99,75v0.5h-2.7l0,0c0,0.4,0.1,0.7,0.3,1s0.5,0.4,0.8,0.4
		c0.3,0,0.5,0,0.7-0.1c0.2-0.1,0.4-0.2,0.5-0.3l0.3,0.5c-0.1,0.1-0.3,0.3-0.6,0.4C98.1,77.4,97.8,77.5,97.5,77.5z M97.3,73.8
		c-0.3,0-0.5,0.1-0.6,0.3c-0.2,0.2-0.3,0.5-0.3,0.8l0,0h1.9v-0.1c0-0.3-0.1-0.5-0.2-0.7C97.9,73.9,97.7,73.8,97.3,73.8z"/>
	<path class="st1" d="M105.1,74.6h-0.6l-0.1-0.5c-0.1-0.1-0.2-0.2-0.3-0.2c-0.1-0.1-0.3-0.1-0.5-0.1c-0.3,0-0.5,0.1-0.6,0.2
		s-0.2,0.3-0.2,0.4c0,0.2,0.1,0.3,0.2,0.4c0.1,0.1,0.3,0.2,0.7,0.3c0.5,0.1,0.9,0.3,1.2,0.5c0.3,0.2,0.4,0.5,0.4,0.8
		c0,0.4-0.1,0.7-0.4,0.9c-0.3,0.2-0.7,0.3-1.2,0.3c-0.3,0-0.6,0-0.8-0.1c-0.3-0.1-0.5-0.2-0.7-0.3l0-0.9h0.6l0.1,0.6
		c0.1,0.1,0.2,0.1,0.4,0.2c0.1,0,0.3,0.1,0.5,0.1c0.3,0,0.5-0.1,0.6-0.2c0.2-0.1,0.2-0.3,0.2-0.4c0-0.2-0.1-0.3-0.2-0.4
		c-0.1-0.1-0.4-0.2-0.7-0.3c-0.5-0.1-0.9-0.3-1.1-0.4c-0.3-0.2-0.4-0.4-0.4-0.8c0-0.3,0.1-0.6,0.4-0.9c0.3-0.2,0.7-0.4,1.1-0.4
		c0.3,0,0.6,0,0.8,0.1c0.2,0.1,0.5,0.2,0.6,0.3L105.1,74.6z"/>
	<path class="st1" d="M115,77.4c0-0.1,0-0.2-0.1-0.3s0-0.2,0-0.3c-0.1,0.2-0.3,0.3-0.5,0.5c-0.2,0.1-0.5,0.2-0.7,0.2
		c-0.4,0-0.8-0.1-1-0.3c-0.2-0.2-0.3-0.5-0.3-0.9c0-0.4,0.2-0.7,0.5-0.9c0.3-0.2,0.8-0.3,1.3-0.3h0.8v-0.5c0-0.2-0.1-0.4-0.2-0.6
		c-0.2-0.1-0.4-0.2-0.6-0.2c-0.2,0-0.4,0-0.5,0.1c-0.1,0-0.3,0.1-0.3,0.2l-0.1,0.4h-0.6v-0.8c0.2-0.2,0.4-0.3,0.7-0.4
		c0.3-0.1,0.6-0.1,0.9-0.1c0.5,0,0.8,0.1,1.1,0.4c0.3,0.2,0.4,0.6,0.4,1v2c0,0.1,0,0.1,0,0.2c0,0.1,0,0.1,0,0.2l0.3,0v0.5H115z
		 M113.8,76.9c0.3,0,0.5-0.1,0.7-0.2c0.2-0.1,0.4-0.3,0.4-0.4v-0.7h-0.8c-0.3,0-0.6,0.1-0.7,0.2s-0.3,0.3-0.3,0.5
		c0,0.2,0.1,0.3,0.2,0.4S113.5,76.9,113.8,76.9z"/>
	<path class="st1" d="M118.8,73.8v-0.5h1.3l0.1,0.6c0.1-0.2,0.3-0.4,0.4-0.5c0.2-0.1,0.4-0.2,0.6-0.2c0.1,0,0.1,0,0.2,0s0.1,0,0.1,0
		l-0.1,0.7l-0.4,0c-0.2,0-0.4,0-0.5,0.1c-0.1,0.1-0.2,0.2-0.3,0.4v2.4l0.6,0.1v0.5h-2v-0.5l0.6-0.1v-3L118.8,73.8z"/>
	<path class="st1" d="M125.6,72.3v1h0.8v0.6h-0.8v2.5c0,0.2,0,0.3,0.1,0.4c0.1,0.1,0.2,0.1,0.3,0.1c0.1,0,0.1,0,0.2,0s0.2,0,0.2,0
		l0.1,0.5c-0.1,0-0.2,0.1-0.3,0.1s-0.3,0-0.4,0c-0.3,0-0.5-0.1-0.7-0.3c-0.2-0.2-0.3-0.5-0.3-0.9v-2.5h-0.7v-0.6h0.7v-1H125.6z"/>
	<path class="st1" d="M129.4,76.9l0.6-0.1v-3l-0.6-0.1v-0.5h1.4v3.5l0.6,0.1v0.5h-2V76.9z M130.8,72.2H130v-0.8h0.8V72.2z"/>
	<path class="st1" d="M137.3,74.6h-0.6l-0.1-0.5c-0.1-0.1-0.2-0.2-0.3-0.2c-0.1-0.1-0.3-0.1-0.5-0.1c-0.3,0-0.5,0.1-0.6,0.2
		s-0.2,0.3-0.2,0.4c0,0.2,0.1,0.3,0.2,0.4c0.1,0.1,0.3,0.2,0.7,0.3c0.5,0.1,0.9,0.3,1.2,0.5c0.3,0.2,0.4,0.5,0.4,0.8
		c0,0.4-0.1,0.7-0.4,0.9c-0.3,0.2-0.7,0.3-1.2,0.3c-0.3,0-0.6,0-0.8-0.1c-0.3-0.1-0.5-0.2-0.7-0.3l0-0.9h0.6l0.1,0.6
		c0.1,0.1,0.2,0.1,0.4,0.2c0.1,0,0.3,0.1,0.5,0.1c0.3,0,0.5-0.1,0.6-0.2c0.2-0.1,0.2-0.3,0.2-0.4c0-0.2-0.1-0.3-0.2-0.4
		c-0.1-0.1-0.4-0.2-0.7-0.3c-0.5-0.1-0.9-0.3-1.1-0.4c-0.3-0.2-0.4-0.4-0.4-0.8c0-0.3,0.1-0.6,0.4-0.9c0.3-0.2,0.7-0.4,1.1-0.4
		c0.3,0,0.6,0,0.8,0.1c0.2,0.1,0.5,0.2,0.6,0.3L137.3,74.6z"/>
	<path class="st1" d="M141.6,72.3v1h0.8v0.6h-0.8v2.5c0,0.2,0,0.3,0.1,0.4c0.1,0.1,0.2,0.1,0.3,0.1c0.1,0,0.1,0,0.2,0s0.2,0,0.2,0
		l0.1,0.5c-0.1,0-0.2,0.1-0.3,0.1s-0.3,0-0.4,0c-0.3,0-0.5-0.1-0.7-0.3c-0.2-0.2-0.3-0.5-0.3-0.9v-2.5h-0.7v-0.6h0.7v-1H141.6z"/>
	<path class="st1" d="M147.3,77.5c-0.6,0-1-0.2-1.4-0.6c-0.3-0.4-0.5-0.9-0.5-1.5v-0.2c0-0.6,0.2-1.1,0.5-1.5
		c0.3-0.4,0.8-0.6,1.2-0.6c0.6,0,1,0.2,1.3,0.5c0.3,0.3,0.4,0.8,0.4,1.3v0.5h-2.7l0,0c0,0.4,0.1,0.7,0.3,1s0.5,0.4,0.8,0.4
		c0.3,0,0.5,0,0.7-0.1c0.2-0.1,0.4-0.2,0.5-0.3l0.3,0.5c-0.1,0.1-0.3,0.3-0.6,0.4C147.9,77.4,147.6,77.5,147.3,77.5z M147.1,73.8
		c-0.3,0-0.5,0.1-0.6,0.3c-0.2,0.2-0.3,0.5-0.3,0.8l0,0h1.9v-0.1c0-0.3-0.1-0.5-0.2-0.7C147.7,73.9,147.5,73.8,147.1,73.8z"/>
	<path class="st1" d="M154.9,74.6h-0.6l-0.1-0.5c-0.1-0.1-0.2-0.2-0.3-0.2c-0.1-0.1-0.3-0.1-0.5-0.1c-0.3,0-0.5,0.1-0.6,0.2
		s-0.2,0.3-0.2,0.4c0,0.2,0.1,0.3,0.2,0.4c0.1,0.1,0.3,0.2,0.7,0.3c0.5,0.1,0.9,0.3,1.2,0.5c0.3,0.2,0.4,0.5,0.4,0.8
		c0,0.4-0.1,0.7-0.4,0.9c-0.3,0.2-0.7,0.3-1.2,0.3c-0.3,0-0.6,0-0.8-0.1c-0.3-0.1-0.5-0.2-0.7-0.3l0-0.9h0.6l0.1,0.6
		c0.1,0.1,0.2,0.1,0.4,0.2c0.1,0,0.3,0.1,0.5,0.1c0.3,0,0.5-0.1,0.6-0.2c0.2-0.1,0.2-0.3,0.2-0.4c0-0.2-0.1-0.3-0.2-0.4
		c-0.1-0.1-0.4-0.2-0.7-0.3c-0.5-0.1-0.9-0.3-1.1-0.4c-0.3-0.2-0.4-0.4-0.4-0.8c0-0.3,0.1-0.6,0.4-0.9c0.3-0.2,0.7-0.4,1.1-0.4
		c0.3,0,0.6,0,0.8,0.1c0.2,0.1,0.5,0.2,0.6,0.3L154.9,74.6z"/>
</g>
</svg>
